G04 Layer: TopSilkscreenLayer*
G04 EasyEDA v6.5.50, 2025-08-15 22:22:53*
G04 78b981eca6ee4c28b6080d7fc2fd3244,645267f41e9e4d7b8b91459b463e1a24,10*
G04 Gerber Generator version 0.2*
G04 Scale: 100 percent, Rotated: No, Reflected: No *
G04 Dimensions in millimeters *
G04 leading zeros omitted , absolute positions ,4 integer and 5 decimal *
%FSLAX45Y45*%
%MOMM*%

%ADD10C,0.4500*%
%ADD11C,0.2030*%
%ADD12C,0.1524*%
%ADD13C,0.2540*%
%ADD14C,0.0119*%

%LPD*%
G36*
X674014Y-661314D02*
G01*
X674014Y-716127D01*
X979779Y-716127D01*
X979779Y-967079D01*
X728827Y-967079D01*
X728827Y-716127D01*
X674014Y-716127D01*
X674014Y-1021892D01*
X1034592Y-1021892D01*
X1034592Y-661314D01*
G37*
G36*
X1086104Y-661314D02*
G01*
X1086104Y-764336D01*
X1137615Y-764336D01*
X1138072Y-713232D01*
X1292199Y-712825D01*
X1292199Y-661314D01*
G37*
G36*
X1343710Y-661314D02*
G01*
X1343304Y-763930D01*
X1292199Y-764336D01*
X1291793Y-815441D01*
X1241094Y-815441D01*
X1240637Y-764336D01*
X1189177Y-764336D01*
X1188720Y-815441D01*
X1086104Y-815848D01*
X1086104Y-817930D01*
X1189126Y-817930D01*
X1189939Y-815848D01*
X1240231Y-816254D01*
X1240231Y-866952D01*
X1189583Y-866952D01*
X1189126Y-817930D01*
X1086104Y-817930D01*
X1086104Y-867359D01*
X1137208Y-867765D01*
X1137666Y-918870D01*
X1188720Y-919276D01*
X1188720Y-1072997D01*
X1138072Y-1072997D01*
X1137615Y-970381D01*
X1086154Y-970381D01*
X1085697Y-1072997D01*
X931570Y-1073404D01*
X931570Y-1075537D01*
X1086104Y-1075537D01*
X1086916Y-1073404D01*
X1137208Y-1073861D01*
X1137208Y-1075537D01*
X1189126Y-1075537D01*
X1189939Y-1073404D01*
X1240231Y-1073861D01*
X1240231Y-1124508D01*
X1189583Y-1124508D01*
X1189126Y-1075537D01*
X1137208Y-1075537D01*
X1137208Y-1124508D01*
X1086561Y-1124508D01*
X1086104Y-1075537D01*
X931570Y-1075537D01*
X931570Y-1124915D01*
X1085697Y-1125372D01*
X1086154Y-1176426D01*
X1188720Y-1176883D01*
X1189177Y-1227937D01*
X1240231Y-1228394D01*
X1240231Y-1330604D01*
X1034999Y-1330604D01*
X1034592Y-1279499D01*
X983487Y-1279042D01*
X983487Y-1228394D01*
X1034592Y-1227937D01*
X1034592Y-1176477D01*
X983132Y-1176477D01*
X982675Y-1227531D01*
X880465Y-1227531D01*
X880059Y-1073404D01*
X777036Y-1073404D01*
X776630Y-1124508D01*
X725932Y-1124508D01*
X725474Y-1073404D01*
X674014Y-1073404D01*
X674014Y-1176426D01*
X725119Y-1176883D01*
X725525Y-1331010D01*
X777036Y-1331010D01*
X777443Y-1228394D01*
X879652Y-1228394D01*
X879652Y-1279042D01*
X828548Y-1279499D01*
X828548Y-1281582D01*
X880059Y-1281582D01*
X880871Y-1279448D01*
X931164Y-1279906D01*
X931164Y-1330604D01*
X880465Y-1330604D01*
X880059Y-1281582D01*
X828548Y-1281582D01*
X828548Y-1330960D01*
X879652Y-1331417D01*
X879666Y-1333093D01*
X983081Y-1333093D01*
X983894Y-1330960D01*
X1034186Y-1331417D01*
X1034186Y-1382115D01*
X983487Y-1382115D01*
X983081Y-1333093D01*
X879666Y-1333093D01*
X880110Y-1382471D01*
X931164Y-1382928D01*
X931164Y-1384604D01*
X1137615Y-1384604D01*
X1138428Y-1382471D01*
X1188720Y-1382928D01*
X1188720Y-1433626D01*
X1241094Y-1433626D01*
X1241094Y-1331417D01*
X1292199Y-1330960D01*
X1292199Y-1229055D01*
X1293317Y-1227937D01*
X1343304Y-1228394D01*
X1343710Y-1279499D01*
X1498244Y-1279499D01*
X1498650Y-1228394D01*
X1600860Y-1228394D01*
X1600860Y-1382115D01*
X1550162Y-1382115D01*
X1549755Y-1331010D01*
X1498244Y-1331010D01*
X1497838Y-1382115D01*
X1446733Y-1382522D01*
X1446326Y-1433626D01*
X1653184Y-1433626D01*
X1653184Y-1331417D01*
X1704289Y-1330960D01*
X1704695Y-1279906D01*
X1755800Y-1279448D01*
X1755800Y-1177544D01*
X1756968Y-1176426D01*
X1806905Y-1176883D01*
X1807362Y-1227937D01*
X1858416Y-1228394D01*
X1858416Y-1330604D01*
X1755851Y-1331010D01*
X1755393Y-1433626D01*
X1446326Y-1433626D01*
X1395222Y-1434033D01*
X1395222Y-1436116D01*
X1446682Y-1436116D01*
X1447495Y-1433982D01*
X1497838Y-1434439D01*
X1497838Y-1485138D01*
X1447139Y-1485138D01*
X1446682Y-1436116D01*
X1395222Y-1436116D01*
X1395222Y-1485544D01*
X1446326Y-1485950D01*
X1446326Y-1536649D01*
X1498650Y-1536649D01*
X1498650Y-1485950D01*
X1549755Y-1485544D01*
X1549755Y-1435150D01*
X1550873Y-1434033D01*
X1652371Y-1434439D01*
X1652371Y-1485138D01*
X1807768Y-1485138D01*
X1807768Y-1382928D01*
X1858822Y-1382471D01*
X1859280Y-1331417D01*
X1910334Y-1330960D01*
X1910791Y-1279906D01*
X1961896Y-1279448D01*
X1961896Y-1229055D01*
X1963013Y-1227937D01*
X2013000Y-1228394D01*
X2013014Y-1230071D01*
X2116378Y-1230071D01*
X2117191Y-1227937D01*
X2167534Y-1228394D01*
X2167534Y-1279042D01*
X2116836Y-1279042D01*
X2116378Y-1230071D01*
X2013014Y-1230071D01*
X2013407Y-1279448D01*
X2064512Y-1279906D01*
X2064512Y-1382115D01*
X2013407Y-1382522D01*
X2013000Y-1433626D01*
X1858873Y-1434033D01*
X1858416Y-1485138D01*
X1652371Y-1485138D01*
X1601317Y-1485544D01*
X1600860Y-1536649D01*
X1446326Y-1536649D01*
X1395222Y-1537055D01*
X1394815Y-1588160D01*
X1292606Y-1588160D01*
X1292606Y-1537462D01*
X1343710Y-1537055D01*
X1344117Y-1382928D01*
X1395222Y-1382471D01*
X1395222Y-1331010D01*
X1343710Y-1331010D01*
X1343304Y-1382115D01*
X1292199Y-1382522D01*
X1291793Y-1433626D01*
X1138072Y-1433626D01*
X1137615Y-1384604D01*
X931164Y-1384604D01*
X931164Y-1433626D01*
X880110Y-1434033D01*
X880089Y-1436116D01*
X983081Y-1436116D01*
X983894Y-1433982D01*
X1034186Y-1434439D01*
X1034186Y-1436116D01*
X1086104Y-1436116D01*
X1086916Y-1433982D01*
X1137208Y-1434439D01*
X1137208Y-1436116D01*
X1189126Y-1436116D01*
X1189939Y-1433982D01*
X1240231Y-1434439D01*
X1240688Y-1485544D01*
X1291793Y-1485950D01*
X1291793Y-1536649D01*
X1189583Y-1536649D01*
X1189126Y-1436116D01*
X1137208Y-1436116D01*
X1137208Y-1485138D01*
X1086561Y-1485138D01*
X1086104Y-1436116D01*
X1034186Y-1436116D01*
X1034186Y-1485138D01*
X983487Y-1485138D01*
X983081Y-1436116D01*
X880089Y-1436116D01*
X879652Y-1485138D01*
X828954Y-1485138D01*
X828548Y-1434033D01*
X777036Y-1434033D01*
X776630Y-1485138D01*
X725932Y-1485138D01*
X725525Y-1382522D01*
X674014Y-1382522D01*
X674014Y-1485544D01*
X725119Y-1485950D01*
X725119Y-1487627D01*
X880059Y-1487627D01*
X880871Y-1485544D01*
X982675Y-1485950D01*
X982675Y-1536649D01*
X931621Y-1537055D01*
X931164Y-1588160D01*
X880465Y-1588160D01*
X880059Y-1487627D01*
X725119Y-1487627D01*
X725119Y-1588160D01*
X674014Y-1588617D01*
X674014Y-1640078D01*
X725474Y-1640078D01*
X725932Y-1588973D01*
X776986Y-1588566D01*
X777443Y-1537462D01*
X828141Y-1537462D01*
X828598Y-1588566D01*
X879652Y-1588973D01*
X880110Y-1640078D01*
X931164Y-1640484D01*
X931164Y-1691182D01*
X983487Y-1691182D01*
X983487Y-1640484D01*
X1086104Y-1640078D01*
X1086104Y-1588566D01*
X983487Y-1588160D01*
X983487Y-1537462D01*
X1034592Y-1537055D01*
X1034592Y-1486662D01*
X1035761Y-1485544D01*
X1085697Y-1485950D01*
X1086154Y-1537055D01*
X1137208Y-1537462D01*
X1137208Y-1590649D01*
X1189126Y-1590649D01*
X1189939Y-1588566D01*
X1240231Y-1588973D01*
X1240231Y-1590649D01*
X1395171Y-1590649D01*
X1395984Y-1588566D01*
X1446326Y-1588973D01*
X1446326Y-1590649D01*
X1498244Y-1590649D01*
X1499006Y-1588566D01*
X1549349Y-1588973D01*
X1549349Y-1639671D01*
X1498650Y-1639671D01*
X1498244Y-1590649D01*
X1446326Y-1590649D01*
X1446326Y-1639671D01*
X1395628Y-1639671D01*
X1395171Y-1590649D01*
X1240231Y-1590649D01*
X1240231Y-1639671D01*
X1189583Y-1639671D01*
X1189126Y-1590649D01*
X1137208Y-1590649D01*
X1137208Y-1642160D01*
X1240637Y-1642160D01*
X1241450Y-1640078D01*
X1343304Y-1640484D01*
X1343304Y-1691182D01*
X1292199Y-1691639D01*
X1291793Y-1742693D01*
X1241094Y-1742693D01*
X1240637Y-1642160D01*
X1137208Y-1642160D01*
X1137208Y-1691182D01*
X931164Y-1691182D01*
X880110Y-1691639D01*
X879652Y-1742693D01*
X828548Y-1743151D01*
X828141Y-1845716D01*
X725525Y-1846173D01*
X725119Y-1897227D01*
X674014Y-1897684D01*
X674014Y-1949196D01*
X725474Y-1949196D01*
X725932Y-1898091D01*
X776630Y-1898091D01*
X777036Y-1949196D01*
X828548Y-1949196D01*
X828954Y-1898091D01*
X879652Y-1898091D01*
X880110Y-1949196D01*
X931570Y-1949196D01*
X931976Y-1898091D01*
X982675Y-1898091D01*
X983132Y-1949196D01*
X1034592Y-1949196D01*
X1034592Y-1897684D01*
X983487Y-1897227D01*
X983487Y-1846580D01*
X1034592Y-1846122D01*
X1034592Y-1794611D01*
X983132Y-1794611D01*
X982675Y-1845716D01*
X880465Y-1845716D01*
X880465Y-1795068D01*
X931570Y-1794611D01*
X931976Y-1691995D01*
X982675Y-1691995D01*
X983132Y-1743100D01*
X1085697Y-1743506D01*
X1086154Y-1794611D01*
X1137615Y-1794611D01*
X1138072Y-1743506D01*
X1188720Y-1743506D01*
X1188737Y-1745234D01*
X1292148Y-1745234D01*
X1292961Y-1743100D01*
X1394815Y-1743506D01*
X1394815Y-1794205D01*
X1498650Y-1794205D01*
X1498650Y-1691995D01*
X1549755Y-1691589D01*
X1550162Y-1640484D01*
X1601266Y-1640078D01*
X1601266Y-1538173D01*
X1602384Y-1537055D01*
X1703882Y-1537462D01*
X1704339Y-1691589D01*
X1755393Y-1691995D01*
X1755851Y-1743100D01*
X1806905Y-1743506D01*
X1806905Y-1794205D01*
X1755851Y-1794662D01*
X1755393Y-1845716D01*
X1704339Y-1846173D01*
X1703882Y-1897227D01*
X1653184Y-1897227D01*
X1652778Y-1691589D01*
X1601317Y-1691589D01*
X1600860Y-1742693D01*
X1549806Y-1743151D01*
X1549349Y-1794205D01*
X1292606Y-1794205D01*
X1292148Y-1745234D01*
X1188737Y-1745234D01*
X1189177Y-1794611D01*
X1291793Y-1795068D01*
X1291806Y-1796745D01*
X1395171Y-1796745D01*
X1395984Y-1794611D01*
X1497838Y-1795068D01*
X1497838Y-1848256D01*
X1549755Y-1848256D01*
X1550568Y-1846122D01*
X1600860Y-1846580D01*
X1600860Y-1897227D01*
X1550162Y-1897227D01*
X1549755Y-1848256D01*
X1497838Y-1848256D01*
X1497838Y-1897227D01*
X1447139Y-1897227D01*
X1446682Y-1846173D01*
X1395628Y-1845716D01*
X1395171Y-1796745D01*
X1291806Y-1796745D01*
X1292199Y-1846122D01*
X1394815Y-1846580D01*
X1394815Y-1897227D01*
X1292199Y-1897684D01*
X1292199Y-1899767D01*
X1395171Y-1899767D01*
X1395984Y-1897634D01*
X1446326Y-1898091D01*
X1446326Y-1899767D01*
X1498244Y-1899767D01*
X1499006Y-1897634D01*
X1549349Y-1898091D01*
X1549349Y-1948738D01*
X1498650Y-1948738D01*
X1498244Y-1899767D01*
X1446326Y-1899767D01*
X1446326Y-1948738D01*
X1395628Y-1948738D01*
X1395171Y-1899767D01*
X1292199Y-1899767D01*
X1292199Y-1949145D01*
X1394815Y-1949602D01*
X1394815Y-2000300D01*
X1241094Y-2000300D01*
X1240637Y-1949196D01*
X1189177Y-1949196D01*
X1189177Y-2000656D01*
X1240231Y-2001113D01*
X1240231Y-2054301D01*
X1292148Y-2054301D01*
X1292961Y-2052167D01*
X1394815Y-2052624D01*
X1394815Y-2103323D01*
X1292606Y-2103323D01*
X1292148Y-2054301D01*
X1240231Y-2054301D01*
X1240231Y-2157323D01*
X1292148Y-2157323D01*
X1292961Y-2155190D01*
X1343304Y-2155647D01*
X1343304Y-2206345D01*
X1395628Y-2206345D01*
X1395628Y-2155647D01*
X1498244Y-2155240D01*
X1498244Y-2052218D01*
X1395628Y-2051812D01*
X1395628Y-2001113D01*
X1601266Y-2000707D01*
X1601266Y-1950262D01*
X1602384Y-1949145D01*
X1652371Y-1949602D01*
X1652776Y-2051812D01*
X1704695Y-2051812D01*
X1704695Y-1898091D01*
X1755800Y-1897634D01*
X1756257Y-1846580D01*
X1807311Y-1846122D01*
X1807768Y-1795068D01*
X1858416Y-1795068D01*
X1858873Y-1846122D01*
X1910384Y-1846122D01*
X1910384Y-1743151D01*
X1859280Y-1742693D01*
X1858822Y-1691639D01*
X1756257Y-1691182D01*
X1756257Y-1537462D01*
X1806905Y-1537462D01*
X1807362Y-1588566D01*
X1910384Y-1588566D01*
X1910384Y-1486662D01*
X1911502Y-1485544D01*
X1961438Y-1485950D01*
X1961896Y-1537055D01*
X2013000Y-1537462D01*
X2013000Y-1588160D01*
X2065324Y-1588160D01*
X2065324Y-1382928D01*
X2116429Y-1382471D01*
X2116429Y-1332128D01*
X2117547Y-1330960D01*
X2219045Y-1331417D01*
X2219045Y-1382115D01*
X2167940Y-1382522D01*
X2167534Y-1433626D01*
X2116429Y-1434033D01*
X2116288Y-1487627D01*
X2167890Y-1487627D01*
X2168702Y-1485544D01*
X2219045Y-1485950D01*
X2219045Y-1536649D01*
X2168347Y-1536649D01*
X2167890Y-1487627D01*
X2116288Y-1487627D01*
X2116023Y-1588160D01*
X2013000Y-1588160D01*
X1961896Y-1588617D01*
X1961438Y-1639671D01*
X1910384Y-1640128D01*
X1910384Y-1691589D01*
X1961438Y-1691995D01*
X1961605Y-1742693D01*
X2013813Y-1742693D01*
X2013813Y-1691995D01*
X2064918Y-1691589D01*
X2064918Y-1641195D01*
X2066036Y-1640078D01*
X2116023Y-1640484D01*
X2116429Y-1691589D01*
X2167534Y-1691995D01*
X2167940Y-1743100D01*
X2322068Y-1743506D01*
X2322068Y-1794205D01*
X2167940Y-1794662D01*
X2167534Y-1845716D01*
X2116836Y-1845716D01*
X2116378Y-1794662D01*
X2065324Y-1794205D01*
X2064867Y-1743151D01*
X2013813Y-1742693D01*
X1961605Y-1742693D01*
X1961896Y-1846122D01*
X2013000Y-1846580D01*
X2013000Y-1848256D01*
X2064867Y-1848256D01*
X2065680Y-1846122D01*
X2116023Y-1846580D01*
X2116023Y-1897227D01*
X2065324Y-1897227D01*
X2064867Y-1848256D01*
X2013000Y-1848256D01*
X2013000Y-1897227D01*
X1910384Y-1897684D01*
X1910170Y-1951228D01*
X1961845Y-1951228D01*
X1962657Y-1949145D01*
X2116023Y-1949602D01*
X2116023Y-2103323D01*
X1962302Y-2103323D01*
X1961845Y-1951228D01*
X1910170Y-1951228D01*
X1909927Y-2000300D01*
X1858873Y-2000707D01*
X1858416Y-2103323D01*
X1807768Y-2103323D01*
X1807311Y-2052218D01*
X1704695Y-2051812D01*
X1652776Y-2051812D01*
X1652778Y-2052167D01*
X1703882Y-2052624D01*
X1704339Y-2155240D01*
X1806905Y-2155647D01*
X1806905Y-2157323D01*
X1961845Y-2157323D01*
X1962657Y-2155240D01*
X2064512Y-2155647D01*
X2064512Y-2206345D01*
X1962302Y-2206345D01*
X1961845Y-2157323D01*
X1806905Y-2157323D01*
X1806905Y-2206345D01*
X1755851Y-2206752D01*
X1755393Y-2257856D01*
X1601673Y-2257856D01*
X1601673Y-2207158D01*
X1652778Y-2206701D01*
X1652778Y-2155240D01*
X1601673Y-2154834D01*
X1601266Y-2103729D01*
X1549755Y-2103729D01*
X1549349Y-2257856D01*
X1447139Y-2257856D01*
X1446682Y-2206752D01*
X1395628Y-2206345D01*
X1292606Y-2206345D01*
X1292148Y-2157323D01*
X1240231Y-2157323D01*
X1240231Y-2206345D01*
X1189583Y-2206345D01*
X1189126Y-2155240D01*
X1086104Y-2155240D01*
X1086104Y-2208834D01*
X1137615Y-2208834D01*
X1138428Y-2206701D01*
X1188720Y-2207158D01*
X1188720Y-2257856D01*
X1138072Y-2257856D01*
X1137615Y-2208834D01*
X1086104Y-2208834D01*
X1086104Y-2258263D01*
X1137208Y-2258669D01*
X1137208Y-2309368D01*
X1086104Y-2309825D01*
X1086104Y-2361285D01*
X1189126Y-2361285D01*
X1189583Y-2310180D01*
X1292148Y-2309774D01*
X1292606Y-2258669D01*
X1343660Y-2258263D01*
X1344117Y-2207158D01*
X1394815Y-2207158D01*
X1394815Y-2260346D01*
X1755800Y-2260346D01*
X1756613Y-2258263D01*
X1806905Y-2258669D01*
X1806905Y-2309368D01*
X1756257Y-2309368D01*
X1755800Y-2260346D01*
X1394815Y-2260346D01*
X1394815Y-2309368D01*
X1343710Y-2309825D01*
X1343710Y-2361285D01*
X1704289Y-2361285D01*
X1704695Y-2310180D01*
X1755393Y-2310180D01*
X1755851Y-2361285D01*
X1807311Y-2361285D01*
X1807768Y-2310180D01*
X1858822Y-2309774D01*
X1859280Y-2258669D01*
X1909927Y-2258669D01*
X1910384Y-2309774D01*
X1961845Y-2309774D01*
X1962302Y-2258669D01*
X2013000Y-2258669D01*
X2013407Y-2361285D01*
X2064867Y-2361285D01*
X2065324Y-2310180D01*
X2116023Y-2310180D01*
X2116429Y-2361285D01*
X2167940Y-2361285D01*
X2167940Y-2258314D01*
X2116836Y-2257856D01*
X2116836Y-2155647D01*
X2167890Y-2155190D01*
X2168347Y-2104136D01*
X2219045Y-2104136D01*
X2219452Y-2258263D01*
X2270963Y-2258263D01*
X2271369Y-2155647D01*
X2322068Y-2155647D01*
X2322525Y-2206752D01*
X2373985Y-2206752D01*
X2373985Y-2155240D01*
X2322880Y-2154834D01*
X2322880Y-2104136D01*
X2373985Y-2103678D01*
X2373985Y-2052218D01*
X2322525Y-2052218D01*
X2322068Y-2103323D01*
X2271369Y-2103323D01*
X2270963Y-2052218D01*
X2168347Y-2051812D01*
X2168347Y-2001113D01*
X2219452Y-2000656D01*
X2219452Y-1949196D01*
X2168347Y-1948738D01*
X2168347Y-1898091D01*
X2219452Y-1897634D01*
X2219858Y-1846580D01*
X2270556Y-1846580D01*
X2271014Y-1897684D01*
X2373985Y-1897684D01*
X2373985Y-1743151D01*
X2322880Y-1742693D01*
X2322474Y-1691589D01*
X2168347Y-1691182D01*
X2168347Y-1588973D01*
X2219045Y-1588973D01*
X2219502Y-1640078D01*
X2322474Y-1640078D01*
X2322880Y-1588973D01*
X2373985Y-1588566D01*
X2373985Y-1537055D01*
X2322525Y-1537055D01*
X2322068Y-1588160D01*
X2219858Y-1588160D01*
X2219858Y-1537462D01*
X2270963Y-1537055D01*
X2270963Y-1434033D01*
X2219858Y-1433626D01*
X2219858Y-1382928D01*
X2322474Y-1382522D01*
X2322880Y-1331417D01*
X2373985Y-1330960D01*
X2373985Y-1279499D01*
X2322525Y-1279499D01*
X2322068Y-1330604D01*
X2219858Y-1330604D01*
X2219858Y-1176883D01*
X2270963Y-1176426D01*
X2271369Y-1125372D01*
X2322068Y-1125372D01*
X2322474Y-1227988D01*
X2373985Y-1227988D01*
X2373985Y-1073404D01*
X2271014Y-1073404D01*
X2270556Y-1124508D01*
X2219858Y-1124508D01*
X2219452Y-1073404D01*
X2167940Y-1073404D01*
X2167534Y-1176020D01*
X2116836Y-1176020D01*
X2116378Y-1124966D01*
X2065324Y-1124508D01*
X2064867Y-1073404D01*
X2013407Y-1073404D01*
X2013000Y-1176020D01*
X1961896Y-1176477D01*
X1961438Y-1227531D01*
X1910791Y-1227531D01*
X1910334Y-1124915D01*
X1858873Y-1124915D01*
X1858416Y-1176020D01*
X1807768Y-1176020D01*
X1807768Y-1073861D01*
X1910334Y-1073404D01*
X1910791Y-1022299D01*
X1961896Y-1021892D01*
X1961896Y-970381D01*
X1910384Y-970381D01*
X1909927Y-1021486D01*
X1859280Y-1021486D01*
X1859280Y-867765D01*
X1910334Y-867359D01*
X1910791Y-816254D01*
X1961896Y-815848D01*
X1961896Y-764336D01*
X1910791Y-763930D01*
X1910334Y-661314D01*
X1858873Y-661314D01*
X1858873Y-764286D01*
X1909927Y-764743D01*
X1909927Y-815441D01*
X1858873Y-815848D01*
X1858416Y-866952D01*
X1756257Y-866952D01*
X1756257Y-764743D01*
X1807311Y-764286D01*
X1807311Y-661314D01*
X1498244Y-661314D01*
X1498244Y-712825D01*
X1600860Y-713232D01*
X1600860Y-763930D01*
X1498244Y-764336D01*
X1498244Y-866952D01*
X1550162Y-866952D01*
X1550162Y-816254D01*
X1601266Y-815848D01*
X1601673Y-764743D01*
X1652778Y-764286D01*
X1652778Y-713943D01*
X1653946Y-712774D01*
X1703882Y-713232D01*
X1703882Y-815441D01*
X1652778Y-815848D01*
X1652778Y-867359D01*
X1703882Y-867765D01*
X1703882Y-918464D01*
X1652828Y-918921D01*
X1652808Y-920953D01*
X1755800Y-920953D01*
X1756613Y-918870D01*
X1806905Y-919276D01*
X1806905Y-1072997D01*
X1756257Y-1072997D01*
X1755800Y-920953D01*
X1652808Y-920953D01*
X1652371Y-969975D01*
X1601673Y-969975D01*
X1601266Y-867359D01*
X1550162Y-866952D01*
X1498244Y-866952D01*
X1498244Y-867359D01*
X1549349Y-867765D01*
X1549349Y-969975D01*
X1498244Y-970432D01*
X1498244Y-972464D01*
X1549755Y-972464D01*
X1550568Y-970381D01*
X1600860Y-970787D01*
X1600860Y-972464D01*
X1652778Y-972464D01*
X1653590Y-970381D01*
X1703882Y-970787D01*
X1703882Y-1072997D01*
X1653184Y-1072997D01*
X1652778Y-972464D01*
X1600860Y-972464D01*
X1600860Y-1021486D01*
X1550162Y-1021486D01*
X1549755Y-972464D01*
X1498244Y-972464D01*
X1498244Y-1021892D01*
X1549349Y-1022299D01*
X1549349Y-1072997D01*
X1498244Y-1073454D01*
X1498239Y-1075486D01*
X1704289Y-1075486D01*
X1705102Y-1073404D01*
X1755393Y-1073861D01*
X1755393Y-1176020D01*
X1704695Y-1176020D01*
X1704289Y-1075486D01*
X1498239Y-1075486D01*
X1498103Y-1127048D01*
X1549755Y-1127048D01*
X1550568Y-1124915D01*
X1600860Y-1125372D01*
X1600860Y-1176020D01*
X1550162Y-1176020D01*
X1549755Y-1127048D01*
X1498103Y-1127048D01*
X1497967Y-1178560D01*
X1601266Y-1178560D01*
X1602079Y-1176426D01*
X1703882Y-1176883D01*
X1703882Y-1279042D01*
X1653184Y-1279042D01*
X1652778Y-1227988D01*
X1601673Y-1227531D01*
X1601266Y-1178560D01*
X1497967Y-1178560D01*
X1497838Y-1227531D01*
X1447139Y-1227531D01*
X1446682Y-1176477D01*
X1395222Y-1176477D01*
X1394815Y-1227531D01*
X1344117Y-1227531D01*
X1343660Y-1176477D01*
X1292606Y-1176020D01*
X1292606Y-1073861D01*
X1343660Y-1073404D01*
X1344117Y-970787D01*
X1394815Y-970787D01*
X1395222Y-1021892D01*
X1446733Y-1021892D01*
X1446733Y-815848D01*
X1395222Y-815848D01*
X1394815Y-918464D01*
X1343710Y-918921D01*
X1343304Y-969975D01*
X1292199Y-970432D01*
X1291793Y-1021486D01*
X1241094Y-1021486D01*
X1241094Y-867765D01*
X1343660Y-867359D01*
X1344117Y-764743D01*
X1395222Y-764286D01*
X1395222Y-661314D01*
G37*
G36*
X2013407Y-661314D02*
G01*
X2013407Y-716127D01*
X2319172Y-716127D01*
X2319172Y-967079D01*
X2068220Y-967079D01*
X2068220Y-716127D01*
X2013407Y-716127D01*
X2013407Y-1021892D01*
X2373985Y-1021892D01*
X2373985Y-661314D01*
G37*
G36*
X777036Y-764336D02*
G01*
X777036Y-918870D01*
X931570Y-918870D01*
X931570Y-764336D01*
G37*
G36*
X2116429Y-764336D02*
G01*
X2116429Y-918870D01*
X2270963Y-918870D01*
X2270963Y-764336D01*
G37*
G36*
X1395222Y-1073404D02*
G01*
X1395222Y-1124915D01*
X1446733Y-1124915D01*
X1446733Y-1073404D01*
G37*
G36*
X674014Y-1691589D02*
G01*
X674014Y-1794611D01*
X777036Y-1794611D01*
X777036Y-1691589D01*
G37*
G36*
X1137666Y-1846122D02*
G01*
X1137666Y-1897684D01*
X1240688Y-1897684D01*
X1240688Y-1846122D01*
G37*
G36*
X1807311Y-1897684D02*
G01*
X1807311Y-1949196D01*
X1858873Y-1949196D01*
X1858873Y-1897684D01*
G37*
G36*
X1086104Y-1949196D02*
G01*
X1086104Y-2103729D01*
X1137666Y-2103729D01*
X1137666Y-1949196D01*
G37*
G36*
X2270963Y-1949196D02*
G01*
X2270963Y-2000707D01*
X2322474Y-2000707D01*
X2322474Y-1949196D01*
G37*
G36*
X674014Y-2000707D02*
G01*
X674014Y-2055520D01*
X979779Y-2055520D01*
X979779Y-2306472D01*
X728827Y-2306472D01*
X728827Y-2055520D01*
X674014Y-2055520D01*
X674014Y-2361285D01*
X1034592Y-2361285D01*
X1034592Y-2000707D01*
G37*
G36*
X2013407Y-2000707D02*
G01*
X2013407Y-2052218D01*
X2064918Y-2052218D01*
X2064918Y-2000707D01*
G37*
G36*
X777036Y-2103729D02*
G01*
X777036Y-2258263D01*
X931570Y-2258263D01*
X931570Y-2103729D01*
G37*
G36*
X2322474Y-2258263D02*
G01*
X2322474Y-2309774D01*
X2373985Y-2309774D01*
X2373985Y-2258263D01*
G37*
G36*
X2219452Y-2309774D02*
G01*
X2219452Y-2361285D01*
X2270963Y-2361285D01*
X2270963Y-2309774D01*
G37*
D10*
X558800Y-3441192D02*
G01*
X558800Y-3826002D01*
X815339Y-3441192D02*
G01*
X815339Y-3826002D01*
X558800Y-3624579D02*
G01*
X815339Y-3624579D01*
X936244Y-3679444D02*
G01*
X1156207Y-3679444D01*
X1156207Y-3642868D01*
X1137920Y-3606292D01*
X1119631Y-3587750D01*
X1083055Y-3569462D01*
X1027937Y-3569462D01*
X991362Y-3587750D01*
X954786Y-3624579D01*
X936244Y-3679444D01*
X936244Y-3716020D01*
X954786Y-3771137D01*
X991362Y-3807713D01*
X1027937Y-3826002D01*
X1083055Y-3826002D01*
X1119631Y-3807713D01*
X1156207Y-3771137D01*
X1277112Y-3569462D02*
G01*
X1277112Y-3826002D01*
X1277112Y-3642868D02*
G01*
X1332229Y-3587750D01*
X1368805Y-3569462D01*
X1423923Y-3569462D01*
X1460500Y-3587750D01*
X1478787Y-3642868D01*
X1478787Y-3826002D01*
X1599692Y-3569462D02*
G01*
X1599692Y-3826002D01*
X1599692Y-3679444D02*
G01*
X1618234Y-3624579D01*
X1654810Y-3587750D01*
X1691386Y-3569462D01*
X1746504Y-3569462D01*
X1885695Y-3569462D02*
G01*
X1995677Y-3826002D01*
X2105659Y-3569462D02*
G01*
X1995677Y-3826002D01*
X1959102Y-3899407D01*
X1922271Y-3935984D01*
X1885695Y-3954271D01*
X1867407Y-3954271D01*
X2765297Y-3441192D02*
G01*
X2508758Y-3826002D01*
X2508758Y-3441192D02*
G01*
X2765297Y-3441192D01*
X2508758Y-3826002D02*
G01*
X2765297Y-3826002D01*
X2886456Y-3441192D02*
G01*
X2886456Y-3826002D01*
X2886456Y-3642868D02*
G01*
X2941320Y-3587750D01*
X2977895Y-3569462D01*
X3033013Y-3569462D01*
X3069590Y-3587750D01*
X3087877Y-3642868D01*
X3087877Y-3826002D01*
X3428745Y-3569462D02*
G01*
X3428745Y-3826002D01*
X3428745Y-3624579D02*
G01*
X3392170Y-3587750D01*
X3355593Y-3569462D01*
X3300475Y-3569462D01*
X3263900Y-3587750D01*
X3227324Y-3624579D01*
X3209036Y-3679444D01*
X3209036Y-3716020D01*
X3227324Y-3771137D01*
X3263900Y-3807713D01*
X3300475Y-3826002D01*
X3355593Y-3826002D01*
X3392170Y-3807713D01*
X3428745Y-3771137D01*
X3549904Y-3569462D02*
G01*
X3549904Y-3826002D01*
X3549904Y-3642868D02*
G01*
X3604768Y-3587750D01*
X3641343Y-3569462D01*
X3696461Y-3569462D01*
X3733038Y-3587750D01*
X3751325Y-3642868D01*
X3751325Y-3826002D01*
X4092193Y-3569462D02*
G01*
X4092193Y-3862831D01*
X4073906Y-3917695D01*
X4055618Y-3935984D01*
X4019041Y-3954271D01*
X3963924Y-3954271D01*
X3927347Y-3935984D01*
X4092193Y-3624579D02*
G01*
X4055618Y-3587750D01*
X4019041Y-3569462D01*
X3963924Y-3569462D01*
X3927347Y-3587750D01*
X3890772Y-3624579D01*
X3872484Y-3679444D01*
X3872484Y-3716020D01*
X3890772Y-3771137D01*
X3927347Y-3807713D01*
X3963924Y-3826002D01*
X4019041Y-3826002D01*
X4055618Y-3807713D01*
X4092193Y-3771137D01*
D11*
X593852Y-4050537D02*
G01*
X580136Y-4064000D01*
X566673Y-4084573D01*
X552957Y-4111752D01*
X546100Y-4146042D01*
X546100Y-4173220D01*
X552957Y-4207255D01*
X566673Y-4234434D01*
X580136Y-4255007D01*
X593852Y-4268723D01*
X672845Y-4077715D02*
G01*
X652526Y-4084573D01*
X645668Y-4098289D01*
X645668Y-4111752D01*
X652526Y-4125468D01*
X665987Y-4132326D01*
X693420Y-4139184D01*
X713739Y-4146042D01*
X727455Y-4159504D01*
X734313Y-4173220D01*
X734313Y-4193539D01*
X727455Y-4207255D01*
X720597Y-4214113D01*
X700278Y-4220971D01*
X672845Y-4220971D01*
X652526Y-4214113D01*
X645668Y-4207255D01*
X638810Y-4193539D01*
X638810Y-4173220D01*
X645668Y-4159504D01*
X659384Y-4146042D01*
X679704Y-4139184D01*
X706881Y-4132326D01*
X720597Y-4125468D01*
X727455Y-4111752D01*
X727455Y-4098289D01*
X720597Y-4084573D01*
X700278Y-4077715D01*
X672845Y-4077715D01*
X792987Y-4077715D02*
G01*
X867918Y-4077715D01*
X827023Y-4132326D01*
X847344Y-4132326D01*
X861060Y-4139184D01*
X867918Y-4146042D01*
X874776Y-4166362D01*
X874776Y-4180078D01*
X867918Y-4200397D01*
X854202Y-4214113D01*
X833881Y-4220971D01*
X813307Y-4220971D01*
X792987Y-4214113D01*
X786129Y-4207255D01*
X779271Y-4193539D01*
X926592Y-4111752D02*
G01*
X926592Y-4104894D01*
X933450Y-4091431D01*
X940307Y-4084573D01*
X953770Y-4077715D01*
X981202Y-4077715D01*
X994663Y-4084573D01*
X1001521Y-4091431D01*
X1008379Y-4104894D01*
X1008379Y-4118610D01*
X1001521Y-4132326D01*
X987805Y-4152645D01*
X919734Y-4220971D01*
X1015237Y-4220971D01*
X1060195Y-4050537D02*
G01*
X1073912Y-4064000D01*
X1087373Y-4084573D01*
X1101089Y-4111752D01*
X1107947Y-4146042D01*
X1107947Y-4173220D01*
X1101089Y-4207255D01*
X1087373Y-4234434D01*
X1073912Y-4255007D01*
X1060195Y-4268723D01*
X1346454Y-4125468D02*
G01*
X1339850Y-4146042D01*
X1326134Y-4159504D01*
X1305560Y-4166362D01*
X1298702Y-4166362D01*
X1278381Y-4159504D01*
X1264665Y-4146042D01*
X1257807Y-4125468D01*
X1257807Y-4118610D01*
X1264665Y-4098289D01*
X1278381Y-4084573D01*
X1298702Y-4077715D01*
X1305560Y-4077715D01*
X1326134Y-4084573D01*
X1339850Y-4098289D01*
X1346454Y-4125468D01*
X1346454Y-4159504D01*
X1339850Y-4193539D01*
X1326134Y-4214113D01*
X1305560Y-4220971D01*
X1292097Y-4220971D01*
X1271523Y-4214113D01*
X1264665Y-4200397D01*
X1480312Y-4125468D02*
G01*
X1473454Y-4146042D01*
X1459737Y-4159504D01*
X1439163Y-4166362D01*
X1432560Y-4166362D01*
X1411986Y-4159504D01*
X1398270Y-4146042D01*
X1391665Y-4125468D01*
X1391665Y-4118610D01*
X1398270Y-4098289D01*
X1411986Y-4084573D01*
X1432560Y-4077715D01*
X1439163Y-4077715D01*
X1459737Y-4084573D01*
X1473454Y-4098289D01*
X1480312Y-4125468D01*
X1480312Y-4159504D01*
X1473454Y-4193539D01*
X1459737Y-4214113D01*
X1439163Y-4220971D01*
X1425702Y-4220971D01*
X1405128Y-4214113D01*
X1398270Y-4200397D01*
X1559305Y-4077715D02*
G01*
X1538731Y-4084573D01*
X1532128Y-4098289D01*
X1532128Y-4111752D01*
X1538731Y-4125468D01*
X1552447Y-4132326D01*
X1579626Y-4139184D01*
X1600200Y-4146042D01*
X1613915Y-4159504D01*
X1620520Y-4173220D01*
X1620520Y-4193539D01*
X1613915Y-4207255D01*
X1607057Y-4214113D01*
X1586484Y-4220971D01*
X1559305Y-4220971D01*
X1538731Y-4214113D01*
X1532128Y-4207255D01*
X1525270Y-4193539D01*
X1525270Y-4173220D01*
X1532128Y-4159504D01*
X1545589Y-4146042D01*
X1566163Y-4139184D01*
X1593342Y-4132326D01*
X1607057Y-4125468D01*
X1613915Y-4111752D01*
X1613915Y-4098289D01*
X1607057Y-4084573D01*
X1586484Y-4077715D01*
X1559305Y-4077715D01*
X1665731Y-4159504D02*
G01*
X1788413Y-4159504D01*
X1840229Y-4111752D02*
G01*
X1840229Y-4104894D01*
X1847087Y-4091431D01*
X1853945Y-4084573D01*
X1867407Y-4077715D01*
X1894839Y-4077715D01*
X1908302Y-4084573D01*
X1915160Y-4091431D01*
X1922018Y-4104894D01*
X1922018Y-4118610D01*
X1915160Y-4132326D01*
X1901444Y-4152645D01*
X1833371Y-4220971D01*
X1928876Y-4220971D01*
X1987550Y-4077715D02*
G01*
X2062479Y-4077715D01*
X2021586Y-4132326D01*
X2041906Y-4132326D01*
X2055622Y-4139184D01*
X2062479Y-4146042D01*
X2069338Y-4166362D01*
X2069338Y-4180078D01*
X2062479Y-4200397D01*
X2048763Y-4214113D01*
X2028443Y-4220971D01*
X2007870Y-4220971D01*
X1987550Y-4214113D01*
X1980691Y-4207255D01*
X1973834Y-4193539D01*
X2202941Y-4125468D02*
G01*
X2196084Y-4146042D01*
X2182368Y-4159504D01*
X2162047Y-4166362D01*
X2155190Y-4166362D01*
X2134615Y-4159504D01*
X2121154Y-4146042D01*
X2114295Y-4125468D01*
X2114295Y-4118610D01*
X2121154Y-4098289D01*
X2134615Y-4084573D01*
X2155190Y-4077715D01*
X2162047Y-4077715D01*
X2182368Y-4084573D01*
X2196084Y-4098289D01*
X2202941Y-4125468D01*
X2202941Y-4159504D01*
X2196084Y-4193539D01*
X2182368Y-4214113D01*
X2162047Y-4220971D01*
X2148331Y-4220971D01*
X2128011Y-4214113D01*
X2121154Y-4200397D01*
X2281936Y-4077715D02*
G01*
X2261615Y-4084573D01*
X2254758Y-4098289D01*
X2254758Y-4111752D01*
X2261615Y-4125468D01*
X2275077Y-4132326D01*
X2302509Y-4139184D01*
X2322829Y-4146042D01*
X2336545Y-4159504D01*
X2343404Y-4173220D01*
X2343404Y-4193539D01*
X2336545Y-4207255D01*
X2329688Y-4214113D01*
X2309368Y-4220971D01*
X2281936Y-4220971D01*
X2261615Y-4214113D01*
X2254758Y-4207255D01*
X2247900Y-4193539D01*
X2247900Y-4173220D01*
X2254758Y-4159504D01*
X2268474Y-4146042D01*
X2288793Y-4139184D01*
X2315972Y-4132326D01*
X2329688Y-4125468D01*
X2336545Y-4111752D01*
X2336545Y-4098289D01*
X2329688Y-4084573D01*
X2309368Y-4077715D01*
X2281936Y-4077715D01*
X546100Y-4395215D02*
G01*
X546100Y-4538471D01*
X546100Y-4470145D02*
G01*
X566673Y-4449826D01*
X580136Y-4442968D01*
X600710Y-4442968D01*
X614171Y-4449826D01*
X621029Y-4470145D01*
X621029Y-4538471D01*
X665987Y-4483862D02*
G01*
X748029Y-4483862D01*
X748029Y-4470145D01*
X741171Y-4456684D01*
X734313Y-4449826D01*
X720597Y-4442968D01*
X700278Y-4442968D01*
X686562Y-4449826D01*
X672845Y-4463542D01*
X665987Y-4483862D01*
X665987Y-4497578D01*
X672845Y-4517897D01*
X686562Y-4531613D01*
X700278Y-4538471D01*
X720597Y-4538471D01*
X734313Y-4531613D01*
X748029Y-4517897D01*
X792987Y-4442968D02*
G01*
X792987Y-4538471D01*
X792987Y-4470145D02*
G01*
X813307Y-4449826D01*
X827023Y-4442968D01*
X847344Y-4442968D01*
X861060Y-4449826D01*
X867918Y-4470145D01*
X867918Y-4538471D01*
X912876Y-4442968D02*
G01*
X912876Y-4538471D01*
X912876Y-4483862D02*
G01*
X919734Y-4463542D01*
X933450Y-4449826D01*
X946912Y-4442968D01*
X967486Y-4442968D01*
X1019302Y-4442968D02*
G01*
X1060195Y-4538471D01*
X1101089Y-4442968D02*
G01*
X1060195Y-4538471D01*
X1046479Y-4565650D01*
X1033018Y-4579365D01*
X1019302Y-4586223D01*
X1012444Y-4586223D01*
X1152905Y-4504436D02*
G01*
X1146047Y-4511039D01*
X1152905Y-4517897D01*
X1159763Y-4511039D01*
X1152905Y-4504436D01*
X1279652Y-4442968D02*
G01*
X1204721Y-4538471D01*
X1204721Y-4442968D02*
G01*
X1279652Y-4442968D01*
X1204721Y-4538471D02*
G01*
X1279652Y-4538471D01*
X1324610Y-4395215D02*
G01*
X1324610Y-4538471D01*
X1324610Y-4470145D02*
G01*
X1345184Y-4449826D01*
X1358900Y-4442968D01*
X1379220Y-4442968D01*
X1392936Y-4449826D01*
X1399794Y-4470145D01*
X1399794Y-4538471D01*
X1526539Y-4442968D02*
G01*
X1526539Y-4538471D01*
X1526539Y-4463542D02*
G01*
X1512823Y-4449826D01*
X1499362Y-4442968D01*
X1478787Y-4442968D01*
X1465071Y-4449826D01*
X1451610Y-4463542D01*
X1444752Y-4483862D01*
X1444752Y-4497578D01*
X1451610Y-4517897D01*
X1465071Y-4531613D01*
X1478787Y-4538471D01*
X1499362Y-4538471D01*
X1512823Y-4531613D01*
X1526539Y-4517897D01*
X1571497Y-4442968D02*
G01*
X1571497Y-4538471D01*
X1571497Y-4470145D02*
G01*
X1592071Y-4449826D01*
X1605534Y-4442968D01*
X1626107Y-4442968D01*
X1639823Y-4449826D01*
X1646428Y-4470145D01*
X1646428Y-4538471D01*
X1773428Y-4442968D02*
G01*
X1773428Y-4551934D01*
X1766570Y-4572507D01*
X1759712Y-4579365D01*
X1745995Y-4586223D01*
X1725676Y-4586223D01*
X1711960Y-4579365D01*
X1773428Y-4463542D02*
G01*
X1759712Y-4449826D01*
X1745995Y-4442968D01*
X1725676Y-4442968D01*
X1711960Y-4449826D01*
X1698244Y-4463542D01*
X1691639Y-4483862D01*
X1691639Y-4497578D01*
X1698244Y-4517897D01*
X1711960Y-4531613D01*
X1725676Y-4538471D01*
X1745995Y-4538471D01*
X1759712Y-4531613D01*
X1773428Y-4517897D01*
X1825244Y-4442968D02*
G01*
X1866137Y-4538471D01*
X1907031Y-4442968D02*
G01*
X1866137Y-4538471D01*
X1852421Y-4565650D01*
X1838705Y-4579365D01*
X1825244Y-4586223D01*
X1818386Y-4586223D01*
X1958847Y-4442968D02*
G01*
X1999741Y-4538471D01*
X2040636Y-4442968D02*
G01*
X1999741Y-4538471D01*
X1986025Y-4565650D01*
X1972563Y-4579365D01*
X1958847Y-4586223D01*
X1951990Y-4586223D01*
X2092452Y-4504436D02*
G01*
X2085593Y-4511039D01*
X2092452Y-4517897D01*
X2099309Y-4511039D01*
X2092452Y-4504436D01*
X2219197Y-4463542D02*
G01*
X2212340Y-4449826D01*
X2192020Y-4442968D01*
X2171445Y-4442968D01*
X2151125Y-4449826D01*
X2144268Y-4463542D01*
X2151125Y-4477004D01*
X2164841Y-4483862D01*
X2198877Y-4490720D01*
X2212340Y-4497578D01*
X2219197Y-4511039D01*
X2219197Y-4517897D01*
X2212340Y-4531613D01*
X2192020Y-4538471D01*
X2171445Y-4538471D01*
X2151125Y-4531613D01*
X2144268Y-4517897D01*
X2264156Y-4395215D02*
G01*
X2264156Y-4538471D01*
X2264156Y-4470145D02*
G01*
X2284729Y-4449826D01*
X2298445Y-4442968D01*
X2318765Y-4442968D01*
X2332481Y-4449826D01*
X2339340Y-4470145D01*
X2339340Y-4538471D01*
X2486659Y-4449826D02*
G01*
X2479802Y-4436110D01*
X2466086Y-4429252D01*
X2445765Y-4429252D01*
X2432050Y-4436110D01*
X2425191Y-4442968D01*
X2418334Y-4463542D01*
X2418334Y-4483862D01*
X2425191Y-4497578D01*
X2438908Y-4504436D01*
X2459227Y-4504436D01*
X2472943Y-4497578D01*
X2479802Y-4483862D01*
X2445765Y-4429252D02*
G01*
X2432050Y-4442968D01*
X2425191Y-4463542D01*
X2425191Y-4483862D01*
X2432050Y-4497578D01*
X2438908Y-4504436D01*
X2486659Y-4429252D02*
G01*
X2479802Y-4483862D01*
X2479802Y-4497578D01*
X2493263Y-4504436D01*
X2506979Y-4504436D01*
X2520695Y-4490720D01*
X2527554Y-4470145D01*
X2527554Y-4456684D01*
X2520695Y-4436110D01*
X2513838Y-4422394D01*
X2500122Y-4408931D01*
X2486659Y-4402073D01*
X2466086Y-4395215D01*
X2445765Y-4395215D01*
X2425191Y-4402073D01*
X2411475Y-4408931D01*
X2398013Y-4422394D01*
X2391156Y-4436110D01*
X2384297Y-4456684D01*
X2384297Y-4477004D01*
X2391156Y-4497578D01*
X2398013Y-4511039D01*
X2411475Y-4524755D01*
X2425191Y-4531613D01*
X2445765Y-4538471D01*
X2466086Y-4538471D01*
X2486659Y-4531613D01*
X2500122Y-4524755D01*
X2506979Y-4517897D01*
X2493263Y-4429252D02*
G01*
X2486659Y-4483862D01*
X2486659Y-4497578D01*
X2493263Y-4504436D01*
X2654300Y-4442968D02*
G01*
X2654300Y-4551934D01*
X2647441Y-4572507D01*
X2640584Y-4579365D01*
X2627122Y-4586223D01*
X2606547Y-4586223D01*
X2592831Y-4579365D01*
X2654300Y-4463542D02*
G01*
X2640584Y-4449826D01*
X2627122Y-4442968D01*
X2606547Y-4442968D01*
X2592831Y-4449826D01*
X2579370Y-4463542D01*
X2572511Y-4483862D01*
X2572511Y-4497578D01*
X2579370Y-4517897D01*
X2592831Y-4531613D01*
X2606547Y-4538471D01*
X2627122Y-4538471D01*
X2640584Y-4531613D01*
X2654300Y-4517897D01*
X2699258Y-4442968D02*
G01*
X2699258Y-4538471D01*
X2699258Y-4470145D02*
G01*
X2719831Y-4449826D01*
X2733293Y-4442968D01*
X2753868Y-4442968D01*
X2767584Y-4449826D01*
X2774188Y-4470145D01*
X2774188Y-4538471D01*
X2774188Y-4470145D02*
G01*
X2794761Y-4449826D01*
X2808477Y-4442968D01*
X2828797Y-4442968D01*
X2842513Y-4449826D01*
X2849372Y-4470145D01*
X2849372Y-4538471D01*
X2976118Y-4442968D02*
G01*
X2976118Y-4538471D01*
X2976118Y-4463542D02*
G01*
X2962402Y-4449826D01*
X2948940Y-4442968D01*
X2928365Y-4442968D01*
X2914650Y-4449826D01*
X2901188Y-4463542D01*
X2894329Y-4483862D01*
X2894329Y-4497578D01*
X2901188Y-4517897D01*
X2914650Y-4531613D01*
X2928365Y-4538471D01*
X2948940Y-4538471D01*
X2962402Y-4531613D01*
X2976118Y-4517897D01*
X3021075Y-4395215D02*
G01*
X3027934Y-4402073D01*
X3034791Y-4395215D01*
X3027934Y-4388357D01*
X3021075Y-4395215D01*
X3027934Y-4442968D02*
G01*
X3027934Y-4538471D01*
X3079750Y-4395215D02*
G01*
X3079750Y-4538471D01*
X3131565Y-4504436D02*
G01*
X3124708Y-4511039D01*
X3131565Y-4517897D01*
X3138424Y-4511039D01*
X3131565Y-4504436D01*
X3265170Y-4463542D02*
G01*
X3251454Y-4449826D01*
X3237991Y-4442968D01*
X3217418Y-4442968D01*
X3203702Y-4449826D01*
X3190240Y-4463542D01*
X3183381Y-4483862D01*
X3183381Y-4497578D01*
X3190240Y-4517897D01*
X3203702Y-4531613D01*
X3217418Y-4538471D01*
X3237991Y-4538471D01*
X3251454Y-4531613D01*
X3265170Y-4517897D01*
X3344163Y-4442968D02*
G01*
X3330702Y-4449826D01*
X3316986Y-4463542D01*
X3310127Y-4483862D01*
X3310127Y-4497578D01*
X3316986Y-4517897D01*
X3330702Y-4531613D01*
X3344163Y-4538471D01*
X3364738Y-4538471D01*
X3378454Y-4531613D01*
X3391915Y-4517897D01*
X3398774Y-4497578D01*
X3398774Y-4483862D01*
X3391915Y-4463542D01*
X3378454Y-4449826D01*
X3364738Y-4442968D01*
X3344163Y-4442968D01*
X3443731Y-4442968D02*
G01*
X3443731Y-4538471D01*
X3443731Y-4470145D02*
G01*
X3464306Y-4449826D01*
X3478022Y-4442968D01*
X3498341Y-4442968D01*
X3512058Y-4449826D01*
X3518915Y-4470145D01*
X3518915Y-4538471D01*
X3518915Y-4470145D02*
G01*
X3539236Y-4449826D01*
X3552952Y-4442968D01*
X3573272Y-4442968D01*
X3586988Y-4449826D01*
X3593845Y-4470145D01*
X3593845Y-4538471D01*
X2589784Y-673100D02*
G01*
X2446527Y-673100D01*
X2446527Y-673100D02*
G01*
X2446527Y-754887D01*
X2589784Y-799845D02*
G01*
X2582925Y-806704D01*
X2589784Y-813562D01*
X2596641Y-806704D01*
X2589784Y-799845D01*
X2542031Y-806704D02*
G01*
X2446527Y-806704D01*
X2542031Y-858520D02*
G01*
X2446527Y-858520D01*
X2514854Y-858520D02*
G01*
X2535174Y-879094D01*
X2542031Y-892555D01*
X2542031Y-913129D01*
X2535174Y-926845D01*
X2514854Y-933450D01*
X2446527Y-933450D01*
X2589784Y-978662D02*
G01*
X2446527Y-978662D01*
X2542031Y-1046734D02*
G01*
X2473959Y-978662D01*
X2501138Y-1005839D02*
G01*
X2446527Y-1053592D01*
X2501138Y-1098550D02*
G01*
X2501138Y-1180337D01*
X2514854Y-1180337D01*
X2528315Y-1173479D01*
X2535174Y-1166621D01*
X2542031Y-1153160D01*
X2542031Y-1132586D01*
X2535174Y-1119123D01*
X2521458Y-1105407D01*
X2501138Y-1098550D01*
X2487422Y-1098550D01*
X2467102Y-1105407D01*
X2453386Y-1119123D01*
X2446527Y-1132586D01*
X2446527Y-1153160D01*
X2453386Y-1166621D01*
X2467102Y-1180337D01*
X2589784Y-1307084D02*
G01*
X2446527Y-1307084D01*
X2521458Y-1307084D02*
G01*
X2535174Y-1293621D01*
X2542031Y-1279905D01*
X2542031Y-1259586D01*
X2535174Y-1245870D01*
X2521458Y-1232154D01*
X2501138Y-1225295D01*
X2487422Y-1225295D01*
X2467102Y-1232154D01*
X2453386Y-1245870D01*
X2446527Y-1259586D01*
X2446527Y-1279905D01*
X2453386Y-1293621D01*
X2467102Y-1307084D01*
X2589784Y-1352295D02*
G01*
X2582925Y-1358900D01*
X2589784Y-1365757D01*
X2596641Y-1358900D01*
X2589784Y-1352295D01*
X2542031Y-1358900D02*
G01*
X2446527Y-1358900D01*
X2542031Y-1410715D02*
G01*
X2446527Y-1410715D01*
X2514854Y-1410715D02*
G01*
X2535174Y-1431289D01*
X2542031Y-1445005D01*
X2542031Y-1465326D01*
X2535174Y-1479042D01*
X2514854Y-1485900D01*
X2446527Y-1485900D01*
X5359400Y-5085842D02*
G01*
X5359400Y-5200395D01*
X5359400Y-5085842D02*
G01*
X5430265Y-5085842D01*
X5359400Y-5140452D02*
G01*
X5403088Y-5140452D01*
X5359400Y-5200395D02*
G01*
X5430265Y-5200395D01*
X5466334Y-5085842D02*
G01*
X5466334Y-5200395D01*
X5502402Y-5156707D02*
G01*
X5567679Y-5156707D01*
X5567679Y-5145786D01*
X5562345Y-5135118D01*
X5556758Y-5129529D01*
X5545836Y-5124195D01*
X5529579Y-5124195D01*
X5518658Y-5129529D01*
X5507736Y-5140452D01*
X5502402Y-5156707D01*
X5502402Y-5167629D01*
X5507736Y-5184139D01*
X5518658Y-5195062D01*
X5529579Y-5200395D01*
X5545836Y-5200395D01*
X5556758Y-5195062D01*
X5567679Y-5184139D01*
X5669279Y-5140452D02*
G01*
X5658358Y-5129529D01*
X5647436Y-5124195D01*
X5630925Y-5124195D01*
X5620004Y-5129529D01*
X5609336Y-5140452D01*
X5603747Y-5156707D01*
X5603747Y-5167629D01*
X5609336Y-5184139D01*
X5620004Y-5195062D01*
X5630925Y-5200395D01*
X5647436Y-5200395D01*
X5658358Y-5195062D01*
X5669279Y-5184139D01*
X5721604Y-5085842D02*
G01*
X5721604Y-5178552D01*
X5726938Y-5195062D01*
X5737859Y-5200395D01*
X5748781Y-5200395D01*
X5705093Y-5124195D02*
G01*
X5743447Y-5124195D01*
X5784850Y-5124195D02*
G01*
X5784850Y-5200395D01*
X5784850Y-5156707D02*
G01*
X5790184Y-5140452D01*
X5801106Y-5129529D01*
X5812027Y-5124195D01*
X5828538Y-5124195D01*
X5864606Y-5085842D02*
G01*
X5869940Y-5091429D01*
X5875274Y-5085842D01*
X5869940Y-5080507D01*
X5864606Y-5085842D01*
X5869940Y-5124195D02*
G01*
X5869940Y-5200395D01*
X5976874Y-5140452D02*
G01*
X5965952Y-5129529D01*
X5955029Y-5124195D01*
X5938774Y-5124195D01*
X5927852Y-5129529D01*
X5916929Y-5140452D01*
X5911341Y-5156707D01*
X5911341Y-5167629D01*
X5916929Y-5184139D01*
X5927852Y-5195062D01*
X5938774Y-5200395D01*
X5955029Y-5200395D01*
X5965952Y-5195062D01*
X5976874Y-5184139D01*
X6078220Y-5124195D02*
G01*
X6078220Y-5200395D01*
X6078220Y-5140452D02*
G01*
X6067297Y-5129529D01*
X6056375Y-5124195D01*
X6040120Y-5124195D01*
X6029197Y-5129529D01*
X6018275Y-5140452D01*
X6012941Y-5156707D01*
X6012941Y-5167629D01*
X6018275Y-5184139D01*
X6029197Y-5195062D01*
X6040120Y-5200395D01*
X6056375Y-5200395D01*
X6067297Y-5195062D01*
X6078220Y-5184139D01*
X6114288Y-5085842D02*
G01*
X6114288Y-5200395D01*
X6343395Y-5135118D02*
G01*
X6343395Y-5129529D01*
X6338061Y-5124195D01*
X6332474Y-5124195D01*
X6327140Y-5129529D01*
X6321552Y-5140452D01*
X6310629Y-5167629D01*
X6299708Y-5184139D01*
X6288786Y-5195062D01*
X6277863Y-5200395D01*
X6256020Y-5200395D01*
X6245097Y-5195062D01*
X6239763Y-5189473D01*
X6234429Y-5178552D01*
X6234429Y-5167629D01*
X6239763Y-5156707D01*
X6245097Y-5151373D01*
X6283452Y-5129529D01*
X6288786Y-5124195D01*
X6294374Y-5113273D01*
X6294374Y-5102352D01*
X6288786Y-5091429D01*
X6277863Y-5085842D01*
X6266941Y-5091429D01*
X6261608Y-5102352D01*
X6261608Y-5113273D01*
X6266941Y-5129529D01*
X6277863Y-5145786D01*
X6305295Y-5184139D01*
X6316218Y-5195062D01*
X6327140Y-5200395D01*
X6338061Y-5200395D01*
X6343395Y-5195062D01*
X6343395Y-5189473D01*
X6545325Y-5113273D02*
G01*
X6539738Y-5102352D01*
X6528815Y-5091429D01*
X6517893Y-5085842D01*
X6496050Y-5085842D01*
X6485127Y-5091429D01*
X6474206Y-5102352D01*
X6468872Y-5113273D01*
X6463284Y-5129529D01*
X6463284Y-5156707D01*
X6468872Y-5173218D01*
X6474206Y-5184139D01*
X6485127Y-5195062D01*
X6496050Y-5200395D01*
X6517893Y-5200395D01*
X6528815Y-5195062D01*
X6539738Y-5184139D01*
X6545325Y-5173218D01*
X6608572Y-5124195D02*
G01*
X6597650Y-5129529D01*
X6586727Y-5140452D01*
X6581140Y-5156707D01*
X6581140Y-5167629D01*
X6586727Y-5184139D01*
X6597650Y-5195062D01*
X6608572Y-5200395D01*
X6624827Y-5200395D01*
X6635750Y-5195062D01*
X6646672Y-5184139D01*
X6652006Y-5167629D01*
X6652006Y-5156707D01*
X6646672Y-5140452D01*
X6635750Y-5129529D01*
X6624827Y-5124195D01*
X6608572Y-5124195D01*
X6688074Y-5124195D02*
G01*
X6688074Y-5200395D01*
X6688074Y-5145786D02*
G01*
X6704584Y-5129529D01*
X6715506Y-5124195D01*
X6731761Y-5124195D01*
X6742684Y-5129529D01*
X6748018Y-5145786D01*
X6748018Y-5200395D01*
X6748018Y-5145786D02*
G01*
X6764527Y-5129529D01*
X6775450Y-5124195D01*
X6791706Y-5124195D01*
X6802627Y-5129529D01*
X6808215Y-5145786D01*
X6808215Y-5200395D01*
X6844029Y-5124195D02*
G01*
X6844029Y-5238750D01*
X6844029Y-5140452D02*
G01*
X6854952Y-5129529D01*
X6865874Y-5124195D01*
X6882384Y-5124195D01*
X6893306Y-5129529D01*
X6904227Y-5140452D01*
X6909561Y-5156707D01*
X6909561Y-5167629D01*
X6904227Y-5184139D01*
X6893306Y-5195062D01*
X6882384Y-5200395D01*
X6865874Y-5200395D01*
X6854952Y-5195062D01*
X6844029Y-5184139D01*
X6945629Y-5124195D02*
G01*
X6945629Y-5178552D01*
X6950963Y-5195062D01*
X6961886Y-5200395D01*
X6978395Y-5200395D01*
X6989318Y-5195062D01*
X7005574Y-5178552D01*
X7005574Y-5124195D02*
G01*
X7005574Y-5200395D01*
X7057897Y-5085842D02*
G01*
X7057897Y-5178552D01*
X7063486Y-5195062D01*
X7074408Y-5200395D01*
X7085329Y-5200395D01*
X7041641Y-5124195D02*
G01*
X7079741Y-5124195D01*
X7121143Y-5156707D02*
G01*
X7186675Y-5156707D01*
X7186675Y-5145786D01*
X7181088Y-5135118D01*
X7175754Y-5129529D01*
X7164831Y-5124195D01*
X7148575Y-5124195D01*
X7137654Y-5129529D01*
X7126731Y-5140452D01*
X7121143Y-5156707D01*
X7121143Y-5167629D01*
X7126731Y-5184139D01*
X7137654Y-5195062D01*
X7148575Y-5200395D01*
X7164831Y-5200395D01*
X7175754Y-5195062D01*
X7186675Y-5184139D01*
X7222743Y-5124195D02*
G01*
X7222743Y-5200395D01*
X7222743Y-5156707D02*
G01*
X7228077Y-5140452D01*
X7239000Y-5129529D01*
X7249922Y-5124195D01*
X7266431Y-5124195D01*
X7386320Y-5085842D02*
G01*
X7386320Y-5200395D01*
X7386320Y-5085842D02*
G01*
X7457186Y-5085842D01*
X7386320Y-5140452D02*
G01*
X7430008Y-5140452D01*
X7386320Y-5200395D02*
G01*
X7457186Y-5200395D01*
X7493254Y-5124195D02*
G01*
X7493254Y-5200395D01*
X7493254Y-5145786D02*
G01*
X7509509Y-5129529D01*
X7520431Y-5124195D01*
X7536941Y-5124195D01*
X7547863Y-5129529D01*
X7553197Y-5145786D01*
X7553197Y-5200395D01*
X7654543Y-5124195D02*
G01*
X7654543Y-5211318D01*
X7649209Y-5227828D01*
X7643875Y-5233162D01*
X7632954Y-5238750D01*
X7616443Y-5238750D01*
X7605522Y-5233162D01*
X7654543Y-5140452D02*
G01*
X7643875Y-5129529D01*
X7632954Y-5124195D01*
X7616443Y-5124195D01*
X7605522Y-5129529D01*
X7594600Y-5140452D01*
X7589265Y-5156707D01*
X7589265Y-5167629D01*
X7594600Y-5184139D01*
X7605522Y-5195062D01*
X7616443Y-5200395D01*
X7632954Y-5200395D01*
X7643875Y-5195062D01*
X7654543Y-5184139D01*
X7690611Y-5085842D02*
G01*
X7696200Y-5091429D01*
X7701534Y-5085842D01*
X7696200Y-5080507D01*
X7690611Y-5085842D01*
X7696200Y-5124195D02*
G01*
X7696200Y-5200395D01*
X7737602Y-5124195D02*
G01*
X7737602Y-5200395D01*
X7737602Y-5145786D02*
G01*
X7753858Y-5129529D01*
X7764779Y-5124195D01*
X7781290Y-5124195D01*
X7792211Y-5129529D01*
X7797545Y-5145786D01*
X7797545Y-5200395D01*
X7833613Y-5156707D02*
G01*
X7899145Y-5156707D01*
X7899145Y-5145786D01*
X7893558Y-5135118D01*
X7888224Y-5129529D01*
X7877302Y-5124195D01*
X7860791Y-5124195D01*
X7849870Y-5129529D01*
X7838947Y-5140452D01*
X7833613Y-5156707D01*
X7833613Y-5167629D01*
X7838947Y-5184139D01*
X7849870Y-5195062D01*
X7860791Y-5200395D01*
X7877302Y-5200395D01*
X7888224Y-5195062D01*
X7899145Y-5184139D01*
X7934959Y-5156707D02*
G01*
X8000491Y-5156707D01*
X8000491Y-5145786D01*
X7995158Y-5135118D01*
X7989570Y-5129529D01*
X7978647Y-5124195D01*
X7962391Y-5124195D01*
X7951470Y-5129529D01*
X7940547Y-5140452D01*
X7934959Y-5156707D01*
X7934959Y-5167629D01*
X7940547Y-5184139D01*
X7951470Y-5195062D01*
X7962391Y-5200395D01*
X7978647Y-5200395D01*
X7989570Y-5195062D01*
X8000491Y-5184139D01*
X8036559Y-5124195D02*
G01*
X8036559Y-5200395D01*
X8036559Y-5156707D02*
G01*
X8041893Y-5140452D01*
X8052815Y-5129529D01*
X8063738Y-5124195D01*
X8080247Y-5124195D01*
X8116061Y-5085842D02*
G01*
X8121650Y-5091429D01*
X8126984Y-5085842D01*
X8121650Y-5080507D01*
X8116061Y-5085842D01*
X8121650Y-5124195D02*
G01*
X8121650Y-5200395D01*
X8163052Y-5124195D02*
G01*
X8163052Y-5200395D01*
X8163052Y-5145786D02*
G01*
X8179308Y-5129529D01*
X8190229Y-5124195D01*
X8206740Y-5124195D01*
X8217661Y-5129529D01*
X8222995Y-5145786D01*
X8222995Y-5200395D01*
X8324595Y-5124195D02*
G01*
X8324595Y-5211318D01*
X8319008Y-5227828D01*
X8313674Y-5233162D01*
X8302752Y-5238750D01*
X8286241Y-5238750D01*
X8275320Y-5233162D01*
X8324595Y-5140452D02*
G01*
X8313674Y-5129529D01*
X8302752Y-5124195D01*
X8286241Y-5124195D01*
X8275320Y-5129529D01*
X8264397Y-5140452D01*
X8259063Y-5156707D01*
X8259063Y-5167629D01*
X8264397Y-5184139D01*
X8275320Y-5195062D01*
X8286241Y-5200395D01*
X8302752Y-5200395D01*
X8313674Y-5195062D01*
X8324595Y-5184139D01*
X5778500Y-4882642D02*
G01*
X5778500Y-4964429D01*
X5783834Y-4980939D01*
X5794756Y-4991862D01*
X5811265Y-4997195D01*
X5822188Y-4997195D01*
X5838443Y-4991862D01*
X5849365Y-4980939D01*
X5854954Y-4964429D01*
X5854954Y-4882642D01*
X5890768Y-4920995D02*
G01*
X5890768Y-4997195D01*
X5890768Y-4942586D02*
G01*
X5907277Y-4926329D01*
X5918200Y-4920995D01*
X5934456Y-4920995D01*
X5945377Y-4926329D01*
X5950965Y-4942586D01*
X5950965Y-4997195D01*
X5986779Y-4882642D02*
G01*
X5992368Y-4888229D01*
X5997702Y-4882642D01*
X5992368Y-4877307D01*
X5986779Y-4882642D01*
X5992368Y-4920995D02*
G01*
X5992368Y-4997195D01*
X6033770Y-4920995D02*
G01*
X6066536Y-4997195D01*
X6099302Y-4920995D02*
G01*
X6066536Y-4997195D01*
X6135115Y-4953507D02*
G01*
X6200647Y-4953507D01*
X6200647Y-4942586D01*
X6195313Y-4931918D01*
X6189725Y-4926329D01*
X6178804Y-4920995D01*
X6162547Y-4920995D01*
X6151625Y-4926329D01*
X6140704Y-4937252D01*
X6135115Y-4953507D01*
X6135115Y-4964429D01*
X6140704Y-4980939D01*
X6151625Y-4991862D01*
X6162547Y-4997195D01*
X6178804Y-4997195D01*
X6189725Y-4991862D01*
X6200647Y-4980939D01*
X6236715Y-4920995D02*
G01*
X6236715Y-4997195D01*
X6236715Y-4953507D02*
G01*
X6242050Y-4937252D01*
X6252972Y-4926329D01*
X6263893Y-4920995D01*
X6280404Y-4920995D01*
X6376415Y-4937252D02*
G01*
X6370827Y-4926329D01*
X6354572Y-4920995D01*
X6338061Y-4920995D01*
X6321806Y-4926329D01*
X6316218Y-4937252D01*
X6321806Y-4948173D01*
X6332727Y-4953507D01*
X6359906Y-4959095D01*
X6370827Y-4964429D01*
X6376415Y-4975352D01*
X6376415Y-4980939D01*
X6370827Y-4991862D01*
X6354572Y-4997195D01*
X6338061Y-4997195D01*
X6321806Y-4991862D01*
X6316218Y-4980939D01*
X6412229Y-4882642D02*
G01*
X6417818Y-4888229D01*
X6423152Y-4882642D01*
X6417818Y-4877307D01*
X6412229Y-4882642D01*
X6417818Y-4920995D02*
G01*
X6417818Y-4997195D01*
X6475475Y-4882642D02*
G01*
X6475475Y-4975352D01*
X6481063Y-4991862D01*
X6491986Y-4997195D01*
X6502908Y-4997195D01*
X6459220Y-4920995D02*
G01*
X6497320Y-4920995D01*
X6544309Y-4920995D02*
G01*
X6577075Y-4997195D01*
X6609841Y-4920995D02*
G01*
X6577075Y-4997195D01*
X6566154Y-5019039D01*
X6555231Y-5029962D01*
X6544309Y-5035550D01*
X6538975Y-5035550D01*
X6757161Y-4920995D02*
G01*
X6746240Y-4926329D01*
X6735318Y-4937252D01*
X6729729Y-4953507D01*
X6729729Y-4964429D01*
X6735318Y-4980939D01*
X6746240Y-4991862D01*
X6757161Y-4997195D01*
X6773418Y-4997195D01*
X6784340Y-4991862D01*
X6795261Y-4980939D01*
X6800595Y-4964429D01*
X6800595Y-4953507D01*
X6795261Y-4937252D01*
X6784340Y-4926329D01*
X6773418Y-4920995D01*
X6757161Y-4920995D01*
X6880352Y-4882642D02*
G01*
X6869429Y-4882642D01*
X6858508Y-4888229D01*
X6852920Y-4904486D01*
X6852920Y-4997195D01*
X6836663Y-4920995D02*
G01*
X6874763Y-4920995D01*
X7038593Y-4882642D02*
G01*
X7038593Y-4997195D01*
X7000240Y-4882642D02*
G01*
X7076693Y-4882642D01*
X7112761Y-4953507D02*
G01*
X7178040Y-4953507D01*
X7178040Y-4942586D01*
X7172706Y-4931918D01*
X7167118Y-4926329D01*
X7156195Y-4920995D01*
X7139940Y-4920995D01*
X7129018Y-4926329D01*
X7118095Y-4937252D01*
X7112761Y-4953507D01*
X7112761Y-4964429D01*
X7118095Y-4980939D01*
X7129018Y-4991862D01*
X7139940Y-4997195D01*
X7156195Y-4997195D01*
X7167118Y-4991862D01*
X7178040Y-4980939D01*
X7214108Y-4920995D02*
G01*
X7274052Y-4997195D01*
X7274052Y-4920995D02*
G01*
X7214108Y-4997195D01*
X7375652Y-4920995D02*
G01*
X7375652Y-4997195D01*
X7375652Y-4937252D02*
G01*
X7364729Y-4926329D01*
X7353808Y-4920995D01*
X7337297Y-4920995D01*
X7326375Y-4926329D01*
X7315708Y-4937252D01*
X7310120Y-4953507D01*
X7310120Y-4964429D01*
X7315708Y-4980939D01*
X7326375Y-4991862D01*
X7337297Y-4997195D01*
X7353808Y-4997195D01*
X7364729Y-4991862D01*
X7375652Y-4980939D01*
X7471663Y-4937252D02*
G01*
X7466075Y-4926329D01*
X7449820Y-4920995D01*
X7433309Y-4920995D01*
X7417054Y-4926329D01*
X7411465Y-4937252D01*
X7417054Y-4948173D01*
X7427975Y-4953507D01*
X7455154Y-4959095D01*
X7466075Y-4964429D01*
X7471663Y-4975352D01*
X7471663Y-4980939D01*
X7466075Y-4991862D01*
X7449820Y-4997195D01*
X7433309Y-4997195D01*
X7417054Y-4991862D01*
X7411465Y-4980939D01*
X7673340Y-4926329D02*
G01*
X7668006Y-4915407D01*
X7657084Y-4910073D01*
X7640574Y-4910073D01*
X7629652Y-4915407D01*
X7624318Y-4920995D01*
X7618984Y-4937252D01*
X7618984Y-4953507D01*
X7624318Y-4964429D01*
X7635240Y-4970018D01*
X7651495Y-4970018D01*
X7662418Y-4964429D01*
X7668006Y-4953507D01*
X7640574Y-4910073D02*
G01*
X7629652Y-4920995D01*
X7624318Y-4937252D01*
X7624318Y-4953507D01*
X7629652Y-4964429D01*
X7635240Y-4970018D01*
X7673340Y-4910073D02*
G01*
X7668006Y-4953507D01*
X7668006Y-4964429D01*
X7678927Y-4970018D01*
X7689850Y-4970018D01*
X7700772Y-4959095D01*
X7706106Y-4942586D01*
X7706106Y-4931918D01*
X7700772Y-4915407D01*
X7695184Y-4904486D01*
X7684261Y-4893563D01*
X7673340Y-4888229D01*
X7657084Y-4882642D01*
X7640574Y-4882642D01*
X7624318Y-4888229D01*
X7613395Y-4893563D01*
X7602474Y-4904486D01*
X7597140Y-4915407D01*
X7591552Y-4931918D01*
X7591552Y-4948173D01*
X7597140Y-4964429D01*
X7602474Y-4975352D01*
X7613395Y-4986273D01*
X7624318Y-4991862D01*
X7640574Y-4997195D01*
X7657084Y-4997195D01*
X7673340Y-4991862D01*
X7684261Y-4986273D01*
X7689850Y-4980939D01*
X7678927Y-4910073D02*
G01*
X7673340Y-4953507D01*
X7673340Y-4964429D01*
X7678927Y-4970018D01*
X7869681Y-4882642D02*
G01*
X7826247Y-4997195D01*
X7869681Y-4882642D02*
G01*
X7913370Y-4997195D01*
X7842504Y-4959095D02*
G01*
X7897113Y-4959095D01*
X7949438Y-4920995D02*
G01*
X7949438Y-4975352D01*
X7954772Y-4991862D01*
X7965693Y-4997195D01*
X7982204Y-4997195D01*
X7993125Y-4991862D01*
X8009381Y-4975352D01*
X8009381Y-4920995D02*
G01*
X8009381Y-4997195D01*
X8105393Y-4937252D02*
G01*
X8100059Y-4926329D01*
X8083550Y-4920995D01*
X8067293Y-4920995D01*
X8050784Y-4926329D01*
X8045450Y-4937252D01*
X8050784Y-4948173D01*
X8061706Y-4953507D01*
X8089138Y-4959095D01*
X8100059Y-4964429D01*
X8105393Y-4975352D01*
X8105393Y-4980939D01*
X8100059Y-4991862D01*
X8083550Y-4997195D01*
X8067293Y-4997195D01*
X8050784Y-4991862D01*
X8045450Y-4980939D01*
X8157718Y-4882642D02*
G01*
X8157718Y-4975352D01*
X8163306Y-4991862D01*
X8174227Y-4997195D01*
X8185150Y-4997195D01*
X8141461Y-4920995D02*
G01*
X8179561Y-4920995D01*
X8220963Y-4882642D02*
G01*
X8226552Y-4888229D01*
X8231886Y-4882642D01*
X8226552Y-4877307D01*
X8220963Y-4882642D01*
X8226552Y-4920995D02*
G01*
X8226552Y-4997195D01*
X8267954Y-4920995D02*
G01*
X8267954Y-4997195D01*
X8267954Y-4942586D02*
G01*
X8284209Y-4926329D01*
X8295131Y-4920995D01*
X8311641Y-4920995D01*
X8322563Y-4926329D01*
X8327897Y-4942586D01*
X8327897Y-4997195D01*
D12*
X2438400Y-108712D02*
G01*
X2448813Y-103378D01*
X2464308Y-87884D01*
X2464308Y-196850D01*
X5513577Y-1104392D02*
G01*
X5508243Y-1093978D01*
X5497829Y-1083563D01*
X5487670Y-1078484D01*
X5466841Y-1078484D01*
X5456427Y-1083563D01*
X5446013Y-1093978D01*
X5440679Y-1104392D01*
X5435600Y-1120139D01*
X5435600Y-1146047D01*
X5440679Y-1161542D01*
X5446013Y-1171955D01*
X5456427Y-1182370D01*
X5466841Y-1187450D01*
X5487670Y-1187450D01*
X5497829Y-1182370D01*
X5508243Y-1171955D01*
X5513577Y-1161542D01*
X5547868Y-1099312D02*
G01*
X5558281Y-1093978D01*
X5573775Y-1078484D01*
X5573775Y-1187450D01*
X5449950Y-2945511D02*
G01*
X5449950Y-3054477D01*
X5449950Y-3054477D02*
G01*
X5512181Y-3054477D01*
X5546470Y-2945511D02*
G01*
X5546470Y-3054477D01*
X5546470Y-2945511D02*
G01*
X5614034Y-2945511D01*
X5546470Y-2997327D02*
G01*
X5588127Y-2997327D01*
X5546470Y-3054477D02*
G01*
X5614034Y-3054477D01*
X5648325Y-2945511D02*
G01*
X5648325Y-3054477D01*
X5648325Y-2945511D02*
G01*
X5684900Y-2945511D01*
X5700395Y-2950590D01*
X5710809Y-2961004D01*
X5715888Y-2971419D01*
X5721222Y-2987167D01*
X5721222Y-3013075D01*
X5715888Y-3028569D01*
X5710809Y-3038982D01*
X5700395Y-3049396D01*
X5684900Y-3054477D01*
X5648325Y-3054477D01*
X5755513Y-2966338D02*
G01*
X5765927Y-2961004D01*
X5781420Y-2945511D01*
X5781420Y-3054477D01*
X5320284Y-1727200D02*
G01*
X5429250Y-1727200D01*
X5320284Y-1727200D02*
G01*
X5320284Y-1680463D01*
X5325363Y-1664970D01*
X5330697Y-1659636D01*
X5341111Y-1654555D01*
X5351525Y-1654555D01*
X5361940Y-1659636D01*
X5367020Y-1664970D01*
X5372100Y-1680463D01*
X5372100Y-1727200D01*
X5372100Y-1690878D02*
G01*
X5429250Y-1654555D01*
X5341111Y-1620265D02*
G01*
X5335777Y-1609852D01*
X5320284Y-1594104D01*
X5429250Y-1594104D01*
X5613400Y-748284D02*
G01*
X5613400Y-826262D01*
X5618479Y-841755D01*
X5628893Y-852170D01*
X5644641Y-857250D01*
X5655056Y-857250D01*
X5670550Y-852170D01*
X5680963Y-841755D01*
X5686043Y-826262D01*
X5686043Y-748284D01*
X5720334Y-769112D02*
G01*
X5730747Y-763778D01*
X5746495Y-748284D01*
X5746495Y-857250D01*
D13*
X5407581Y-1366357D02*
G01*
X5327583Y-1366357D01*
X5463626Y-1366403D02*
G01*
X5543623Y-1366403D01*
X5407581Y-1224389D02*
G01*
X5327583Y-1224389D01*
X5463626Y-1224437D02*
G01*
X5543623Y-1224437D01*
X5296608Y-1335374D02*
G01*
X5296608Y-1255369D01*
X5574601Y-1255422D02*
G01*
X5574601Y-1335425D01*
X5493699Y-3137700D02*
G01*
X5453700Y-3177700D01*
X5443700Y-3187700D01*
X5453700Y-3197725D01*
X5493699Y-3237725D01*
X5493699Y-3137700D02*
G01*
X5493699Y-3237725D01*
X5518022Y-3289427D02*
G01*
X5672963Y-3289427D01*
X5672963Y-3086227D01*
X5518022Y-3086227D01*
X5439283Y-3291967D02*
G01*
X5291963Y-3291967D01*
X5251322Y-3251327D01*
X5251322Y-3124327D01*
X5289422Y-3086227D01*
X5441822Y-3086227D01*
D12*
X5603260Y-1684578D02*
G01*
X5603260Y-1588691D01*
X5471139Y-1588691D01*
X5471139Y-1684578D01*
X5603260Y-1769821D02*
G01*
X5603260Y-1865708D01*
X5471139Y-1865708D01*
X5471139Y-1769821D01*
D13*
X5522912Y-873206D02*
G01*
X5522912Y-887394D01*
X5455419Y-687392D02*
G01*
X5522912Y-687392D01*
X5522912Y-701588D01*
X5322912Y-701588D02*
G01*
X5322912Y-687392D01*
X5390410Y-687392D01*
X5322912Y-887394D02*
G01*
X5322912Y-873206D01*
X5390410Y-887394D02*
G01*
X5322912Y-887394D01*
X5522912Y-887394D02*
G01*
X5455419Y-887394D01*
G75*
G01*
X5543619Y-1224437D02*
G02*
X5574601Y-1255423I0J-30983D01*
G75*
G01*
X5574601Y-1335420D02*
G02*
X5543619Y-1366403I-30982J0D01*
G75*
G01*
X5327589Y-1366357D02*
G02*
X5296609Y-1335375I3J30982D01*
G75*
G01*
X5296609Y-1255377D02*
G02*
X5327589Y-1224389I30983J5D01*
G75*
G01
X5302250Y-736625D02*
G03X5302250Y-736625I-6350J0D01*
M02*
