G04 Layer: TopLayer*
G04 EasyEDA v6.5.50, 2025-08-15 22:22:53*
G04 78b981eca6ee4c28b6080d7fc2fd3244,645267f41e9e4d7b8b91459b463e1a24,10*
G04 Gerber Generator version 0.2*
G04 Scale: 100 percent, Rotated: No, Reflected: No *
G04 Dimensions in millimeters *
G04 leading zeros omitted , absolute positions ,4 integer and 5 decimal *
%FSLAX45Y45*%
%MOMM*%

%AMMACRO1*21,1,$1,$2,0,0,$3*%
%ADD10C,0.2540*%
%ADD11C,0.3000*%
%ADD12C,0.6000*%
%ADD13R,0.8000X0.9000*%
%ADD14MACRO1,1X1.3995X0.0000*%
%ADD15R,1.0000X1.3995*%
%ADD16MACRO1,0.864X0.8065X0.0000*%
%ADD17R,0.8640X0.8065*%
%ADD18R,0.2200X0.4000*%
%ADD19R,0.4000X0.2200*%
%ADD20C,0.6100*%
%ADD21R,0.4000X0.2800*%
%ADD22R,0.0146X0.2800*%

%LPD*%
G36*
X6943242Y-1679295D02*
G01*
X6941362Y-1679702D01*
X6937095Y-1682038D01*
X6934708Y-1684629D01*
X6930491Y-1694332D01*
X6930491Y-1695196D01*
X6928103Y-1700326D01*
X6928103Y-1701088D01*
X6924548Y-1709064D01*
X6924548Y-1709877D01*
X6922211Y-1715058D01*
X6922211Y-1716176D01*
X6921550Y-1716938D01*
X6913930Y-1735886D01*
X6913930Y-1736648D01*
X6911594Y-1741830D01*
X6911594Y-1742643D01*
X6909206Y-1747824D01*
X6909206Y-1749043D01*
X6908495Y-1749501D01*
X6907936Y-1752041D01*
X6905650Y-1757019D01*
X6905650Y-1757883D01*
X6903313Y-1763014D01*
X6903313Y-1763877D01*
X6900925Y-1769008D01*
X6900925Y-1769872D01*
X6900164Y-1771243D01*
X6897420Y-1777746D01*
X6897420Y-1778863D01*
X6896760Y-1779625D01*
X6890207Y-1796389D01*
X6886752Y-1804517D01*
X6886752Y-1805330D01*
X6885228Y-1808581D01*
X6879691Y-1822450D01*
X6879691Y-1823567D01*
X6879031Y-1824329D01*
X6876948Y-1829917D01*
X6876643Y-1830324D01*
X6875272Y-1834337D01*
X6871411Y-1843278D01*
X6871411Y-1844446D01*
X6870700Y-1844903D01*
X6870141Y-1847443D01*
X6867855Y-1852422D01*
X6867855Y-1853285D01*
X6865518Y-1858416D01*
X6865518Y-1859280D01*
X6863130Y-1864410D01*
X6863130Y-1865274D01*
X6862368Y-1866646D01*
X6859625Y-1873148D01*
X6859625Y-1873961D01*
X6858050Y-1876958D01*
X6852310Y-1877618D01*
X6835800Y-1878838D01*
X6818833Y-1879650D01*
X6815074Y-1880412D01*
X6807809Y-1880463D01*
X6800748Y-1881225D01*
X6783019Y-1882444D01*
X6767677Y-1883156D01*
X6761378Y-1884019D01*
X6733438Y-1885645D01*
X6725920Y-1886407D01*
X6700367Y-1888032D01*
X6691680Y-1888845D01*
X6663334Y-1890369D01*
X6658203Y-1891182D01*
X6653733Y-1891538D01*
X6649618Y-1893824D01*
X6647129Y-1896364D01*
X6645046Y-1900783D01*
X6645046Y-1906016D01*
X6646316Y-1909978D01*
X6646976Y-1909978D01*
X6647027Y-1910943D01*
X6648805Y-1912975D01*
X6666890Y-1928114D01*
X6668109Y-1929333D01*
X6708597Y-1963826D01*
X6709206Y-1963877D01*
X6713728Y-1968093D01*
X6747205Y-1996439D01*
X6753098Y-2001164D01*
X6753910Y-2002078D01*
X6766102Y-2012238D01*
X6779412Y-2023770D01*
X6779869Y-2023770D01*
X6801815Y-2042718D01*
X6804101Y-2044293D01*
X6804101Y-2047544D01*
X6803339Y-2048306D01*
X6799173Y-2066645D01*
X6798665Y-2067458D01*
X6798106Y-2071370D01*
X6797446Y-2072639D01*
X6794601Y-2085035D01*
X6793839Y-2086457D01*
X6793331Y-2090216D01*
X6792722Y-2091029D01*
X6787134Y-2114956D01*
X6781901Y-2135733D01*
X6780885Y-2138934D01*
X6778955Y-2147722D01*
X6776516Y-2157272D01*
X6776110Y-2158085D01*
X6775399Y-2161692D01*
X6768439Y-2190445D01*
X6767982Y-2191207D01*
X6767423Y-2194814D01*
X6766712Y-2196388D01*
X6764832Y-2204770D01*
X6763918Y-2207056D01*
X6763918Y-2209241D01*
X6763207Y-2210003D01*
X6756806Y-2237536D01*
X6756095Y-2238908D01*
X6755536Y-2242312D01*
X6754825Y-2243785D01*
X6754825Y-2249220D01*
X6756958Y-2253792D01*
X6759244Y-2256434D01*
X6762699Y-2258466D01*
X6764274Y-2258466D01*
X6764781Y-2259279D01*
X6769811Y-2259279D01*
X6770268Y-2258466D01*
X6771894Y-2258466D01*
X6778701Y-2254351D01*
X6779666Y-2253538D01*
X6788150Y-2248357D01*
X6788403Y-2247696D01*
X6789470Y-2247696D01*
X6790537Y-2246731D01*
X6797598Y-2242362D01*
X6797852Y-2241702D01*
X6798513Y-2241702D01*
X6803491Y-2238298D01*
X6810603Y-2233980D01*
X6810959Y-2233523D01*
X6848754Y-2209495D01*
X6851548Y-2207971D01*
X6872782Y-2194204D01*
X6874357Y-2193493D01*
X6879894Y-2189886D01*
X6880809Y-2189022D01*
X6881520Y-2189022D01*
X6884619Y-2186787D01*
X6889699Y-2183688D01*
X6890003Y-2183028D01*
X6891020Y-2183028D01*
X6892137Y-2182012D01*
X6899148Y-2177643D01*
X6899452Y-2177034D01*
X6900468Y-2177034D01*
X6903110Y-2175103D01*
X6908596Y-2171700D01*
X6909003Y-2171242D01*
X6917944Y-2165654D01*
X6922008Y-2162860D01*
X6931050Y-2157323D01*
X6931304Y-2156663D01*
X6932320Y-2156663D01*
X6935368Y-2154428D01*
X6940499Y-2151329D01*
X6940753Y-2150719D01*
X6941820Y-2150719D01*
X6942886Y-2149703D01*
X6944614Y-2148687D01*
X6945680Y-2148687D01*
X6958634Y-2156815D01*
X6958990Y-2157323D01*
X6975551Y-2167636D01*
X6976567Y-2168652D01*
X6977634Y-2168652D01*
X6977888Y-2169312D01*
X6985000Y-2173630D01*
X6985406Y-2174087D01*
X7032040Y-2203805D01*
X7035800Y-2205990D01*
X7036816Y-2207006D01*
X7037882Y-2207006D01*
X7038136Y-2207564D01*
X7040676Y-2209393D01*
X7041438Y-2209393D01*
X7041692Y-2210054D01*
X7047992Y-2213914D01*
X7049820Y-2215388D01*
X7050887Y-2215388D01*
X7051141Y-2215997D01*
X7056272Y-2219147D01*
X7059320Y-2221382D01*
X7060336Y-2221382D01*
X7060590Y-2222042D01*
X7087870Y-2239314D01*
X7088378Y-2239314D01*
X7089343Y-2240178D01*
X7109815Y-2253335D01*
X7110984Y-2253792D01*
X7117334Y-2258009D01*
X7121753Y-2259279D01*
X7123938Y-2259279D01*
X7126731Y-2258364D01*
X7129881Y-2256891D01*
X7132624Y-2254300D01*
X7133844Y-2252319D01*
X7135266Y-2248509D01*
X7134859Y-2243531D01*
X7131659Y-2229713D01*
X7131151Y-2228799D01*
X7126884Y-2210765D01*
X7126376Y-2209596D01*
X7119874Y-2182012D01*
X7119112Y-2180437D01*
X7112711Y-2153310D01*
X7112000Y-2151684D01*
X7111492Y-2148078D01*
X7110882Y-2147316D01*
X7110374Y-2143810D01*
X7109815Y-2142896D01*
X7102144Y-2110587D01*
X7101382Y-2108962D01*
X7086346Y-2047900D01*
X7085888Y-2044598D01*
X7091680Y-2039467D01*
X7104278Y-2029155D01*
X7115302Y-2019554D01*
X7129068Y-2008073D01*
X7129881Y-2007158D01*
X7165695Y-1976932D01*
X7166508Y-1976018D01*
X7241997Y-1912213D01*
X7243876Y-1909165D01*
X7245045Y-1905762D01*
X7245045Y-1901799D01*
X7243876Y-1898396D01*
X7241997Y-1895398D01*
X7239304Y-1892960D01*
X7236561Y-1891538D01*
X7229906Y-1890775D01*
X7198766Y-1888794D01*
X7191705Y-1887982D01*
X7176719Y-1887220D01*
X7159040Y-1886000D01*
X7151928Y-1885289D01*
X7144461Y-1885188D01*
X7141311Y-1884476D01*
X7128306Y-1884019D01*
X7120026Y-1883206D01*
X7090714Y-1881225D01*
X7086955Y-1880819D01*
X7055459Y-1878838D01*
X7053529Y-1878431D01*
X7036562Y-1877568D01*
X7031990Y-1877161D01*
X7029399Y-1871421D01*
X7028840Y-1868881D01*
X7028129Y-1868424D01*
X7028129Y-1867154D01*
X7025741Y-1862023D01*
X7025741Y-1861210D01*
X7023404Y-1856079D01*
X7023404Y-1855216D01*
X7017054Y-1839925D01*
X7012330Y-1827530D01*
X7009231Y-1820468D01*
X7009231Y-1819706D01*
X6995058Y-1784553D01*
X6995058Y-1783740D01*
X6991502Y-1775612D01*
X6990994Y-1773428D01*
X6990334Y-1772970D01*
X6990334Y-1771751D01*
X6987946Y-1766570D01*
X6987946Y-1765757D01*
X6985609Y-1760575D01*
X6985609Y-1759762D01*
X6983222Y-1754632D01*
X6983222Y-1753819D01*
X6980885Y-1748637D01*
X6980885Y-1748078D01*
X6979818Y-1746097D01*
X6977735Y-1740509D01*
X6977430Y-1740103D01*
X6975602Y-1734921D01*
X6975094Y-1734108D01*
X6973214Y-1728927D01*
X6972198Y-1726946D01*
X6972198Y-1725930D01*
X6970217Y-1721866D01*
X6970217Y-1721104D01*
X6966712Y-1713179D01*
X6966712Y-1712315D01*
X6960768Y-1697989D01*
X6960768Y-1697126D01*
X6955637Y-1684731D01*
X6952183Y-1681276D01*
X6948779Y-1679549D01*
G37*
G36*
X7011924Y-2538476D02*
G01*
X7003796Y-2538628D01*
X6991603Y-2541371D01*
X6982459Y-2545435D01*
X6974331Y-2550820D01*
X6967981Y-2556459D01*
X6961073Y-2565958D01*
X6958736Y-2570784D01*
X6955536Y-2580284D01*
X6955485Y-2724200D01*
X6953910Y-2726537D01*
X6940803Y-2719730D01*
X6853174Y-2670759D01*
X6843217Y-2665526D01*
X6828485Y-2657144D01*
X6826097Y-2657144D01*
X6822897Y-2654401D01*
X6802577Y-2652268D01*
X6788302Y-2654909D01*
X6776161Y-2660396D01*
X6773214Y-2662428D01*
X6760565Y-2674416D01*
X6754875Y-2685592D01*
X6751370Y-2698140D01*
X6751370Y-2708757D01*
X6754875Y-2721305D01*
X6760870Y-2732684D01*
X6769811Y-2742184D01*
X6781596Y-2749753D01*
X6782562Y-2749753D01*
X6823913Y-2772918D01*
X6826961Y-2774848D01*
X6830009Y-2776169D01*
X6864553Y-2795676D01*
X6867601Y-2797098D01*
X6879793Y-2804414D01*
X6885889Y-2807462D01*
X6918756Y-2826004D01*
X6920280Y-2826004D01*
X6926935Y-2830830D01*
X6928256Y-2830830D01*
X6955536Y-2846374D01*
X6955536Y-3098952D01*
X6953351Y-3100222D01*
X6949744Y-3097123D01*
X6948373Y-3097123D01*
X6922820Y-3082645D01*
X6921957Y-3082645D01*
X6896353Y-3068167D01*
X6895592Y-3068167D01*
X6874713Y-3056585D01*
X6871665Y-3054654D01*
X6868617Y-3053334D01*
X6848297Y-3042107D01*
X6845249Y-3040176D01*
X6842201Y-3038906D01*
X6817766Y-3025140D01*
X6814769Y-3023768D01*
X6808673Y-3019958D01*
X6805625Y-3018637D01*
X6760870Y-2993847D01*
X6756044Y-2991916D01*
X6750100Y-2987852D01*
X6724853Y-2974594D01*
X6722770Y-2970834D01*
X6720941Y-2769514D01*
X6716674Y-2756814D01*
X6708190Y-2744825D01*
X6698742Y-2736748D01*
X6686702Y-2731211D01*
X6682638Y-2729534D01*
X6665823Y-2727452D01*
X6653174Y-2729687D01*
X6643979Y-2732735D01*
X6638899Y-2735681D01*
X6630009Y-2742031D01*
X6621322Y-2752699D01*
X6617462Y-2760878D01*
X6613855Y-2771241D01*
X6614414Y-2910484D01*
X6612890Y-2912821D01*
X6597243Y-2904134D01*
X6594195Y-2902813D01*
X6573875Y-2891586D01*
X6570827Y-2889656D01*
X6566712Y-2887980D01*
X6539331Y-2872384D01*
X6530187Y-2868015D01*
X6521754Y-2862630D01*
X6520434Y-2862630D01*
X6491528Y-2846324D01*
X6481013Y-2841447D01*
X6478219Y-2841447D01*
X6475679Y-2839008D01*
X6449669Y-2839008D01*
X6431178Y-2847289D01*
X6423761Y-2853486D01*
X6415024Y-2864510D01*
X6409232Y-2878582D01*
X6409385Y-2902153D01*
X6411518Y-2904642D01*
X6412992Y-2909468D01*
X6417208Y-2918155D01*
X6431584Y-2931718D01*
X6450888Y-2942132D01*
X6459016Y-2946298D01*
X6480048Y-2958185D01*
X6480759Y-2958185D01*
X6489801Y-2963976D01*
X6491173Y-2963976D01*
X6509867Y-2974594D01*
X6512915Y-2975914D01*
X6537350Y-2989630D01*
X6540347Y-2991002D01*
X6550964Y-2996742D01*
X6559143Y-3001619D01*
X6559143Y-3003448D01*
X6509004Y-3030524D01*
X6507327Y-3030524D01*
X6507327Y-3032353D01*
X6502704Y-3033725D01*
X6495389Y-3038094D01*
X6468160Y-3052724D01*
X6465112Y-3054045D01*
X6452920Y-3061055D01*
X6438696Y-3068421D01*
X6428028Y-3075127D01*
X6419697Y-3084068D01*
X6412839Y-3097784D01*
X6409994Y-3113328D01*
X6412788Y-3128467D01*
X6415887Y-3135884D01*
X6422593Y-3145840D01*
X6430873Y-3153562D01*
X6435648Y-3157016D01*
X6441744Y-3160014D01*
X6453936Y-3163976D01*
X6474510Y-3163824D01*
X6485331Y-3160471D01*
X6495592Y-3155238D01*
X6506362Y-3149244D01*
X6507124Y-3149244D01*
X6527800Y-3137662D01*
X6528358Y-3137662D01*
X6556603Y-3122117D01*
X6562191Y-3120085D01*
X6562191Y-3118459D01*
X6566153Y-3117291D01*
X6602933Y-3097123D01*
X6603796Y-3097123D01*
X6619595Y-3088436D01*
X6622643Y-3086506D01*
X6625691Y-3085134D01*
X6640525Y-3076854D01*
X6641439Y-3076854D01*
X6654190Y-3069488D01*
X6667804Y-3062376D01*
X6670954Y-3062376D01*
X6697878Y-3077514D01*
X6712000Y-3085033D01*
X6721246Y-3090367D01*
X6726326Y-3092805D01*
X6751116Y-3106775D01*
X6752132Y-3106775D01*
X6775703Y-3120288D01*
X6776618Y-3120288D01*
X6803948Y-3135731D01*
X6805015Y-3135731D01*
X6828586Y-3149244D01*
X6829602Y-3149244D01*
X6850837Y-3161131D01*
X6852361Y-3161792D01*
X6858457Y-3165500D01*
X6882841Y-3178403D01*
X6886041Y-3181045D01*
X6887616Y-3181045D01*
X6896353Y-3186684D01*
X6900875Y-3188004D01*
X6895287Y-3192576D01*
X6886905Y-3196590D01*
X6862876Y-3210001D01*
X6862216Y-3210001D01*
X6837121Y-3224123D01*
X6831990Y-3226663D01*
X6803085Y-3242818D01*
X6752183Y-3270808D01*
X6751320Y-3270808D01*
X6727748Y-3284321D01*
X6726681Y-3284321D01*
X6707022Y-3295243D01*
X6699910Y-3299510D01*
X6672478Y-3314293D01*
X6668160Y-3315309D01*
X6657238Y-3309975D01*
X6640931Y-3300729D01*
X6634835Y-3297885D01*
X6624675Y-3292043D01*
X6621627Y-3290722D01*
X6605016Y-3281426D01*
X6603949Y-3281426D01*
X6586067Y-3271164D01*
X6572859Y-3264560D01*
X6567779Y-3261410D01*
X6488480Y-3218789D01*
X6481368Y-3215944D01*
X6468973Y-3212744D01*
X6455968Y-3213608D01*
X6446824Y-3215995D01*
X6438392Y-3219551D01*
X6429298Y-3225038D01*
X6418783Y-3236468D01*
X6413042Y-3248101D01*
X6410807Y-3259683D01*
X6410045Y-3266186D01*
X6413449Y-3281883D01*
X6419291Y-3293160D01*
X6433464Y-3306521D01*
X6448856Y-3314852D01*
X6451904Y-3316173D01*
X6459016Y-3320237D01*
X6476288Y-3329381D01*
X6487972Y-3335934D01*
X6525259Y-3355543D01*
X6543395Y-3366058D01*
X6557619Y-3373272D01*
X6559092Y-3375507D01*
X6559143Y-3376472D01*
X6548475Y-3382111D01*
X6513931Y-3401060D01*
X6510883Y-3402990D01*
X6507835Y-3404311D01*
X6488074Y-3415537D01*
X6485940Y-3415537D01*
X6485940Y-3417315D01*
X6481368Y-3418687D01*
X6467144Y-3426815D01*
X6464096Y-3428085D01*
X6458000Y-3431794D01*
X6452920Y-3434435D01*
X6427876Y-3448659D01*
X6420002Y-3456533D01*
X6414465Y-3464255D01*
X6410553Y-3473907D01*
X6408521Y-3484524D01*
X6409639Y-3499967D01*
X6413550Y-3509975D01*
X6420002Y-3520643D01*
X6432092Y-3531006D01*
X6444792Y-3536848D01*
X6461506Y-3540251D01*
X6481368Y-3536797D01*
X6484416Y-3534664D01*
X6494576Y-3529533D01*
X6512153Y-3519728D01*
X6513322Y-3519728D01*
X6537248Y-3506012D01*
X6541363Y-3504285D01*
X6544411Y-3502355D01*
X6570319Y-3487877D01*
X6571132Y-3487877D01*
X6596888Y-3473399D01*
X6597700Y-3473399D01*
X6613144Y-3464509D01*
X6614261Y-3465576D01*
X6613906Y-3605479D01*
X6617208Y-3616706D01*
X6623659Y-3628999D01*
X6636258Y-3640937D01*
X6647942Y-3646373D01*
X6661251Y-3649979D01*
X6674612Y-3649979D01*
X6685686Y-3647033D01*
X6698335Y-3640988D01*
X6709257Y-3631184D01*
X6714134Y-3624427D01*
X6718655Y-3615740D01*
X6718706Y-3612743D01*
X6721043Y-3610508D01*
X6722922Y-3405378D01*
X6728358Y-3401161D01*
X6738518Y-3396081D01*
X6777126Y-3374644D01*
X6784238Y-3370986D01*
X6790334Y-3367278D01*
X6793433Y-3365906D01*
X6807657Y-3357981D01*
X6810705Y-3356660D01*
X6848297Y-3335426D01*
X6851345Y-3334105D01*
X6865569Y-3326129D01*
X6868617Y-3324758D01*
X6922465Y-3294887D01*
X6925513Y-3293567D01*
X6945020Y-3282594D01*
X6953758Y-3278327D01*
X6955485Y-3280918D01*
X6955536Y-3529990D01*
X6952996Y-3533038D01*
X6925513Y-3548278D01*
X6922465Y-3549650D01*
X6916369Y-3553460D01*
X6913321Y-3554831D01*
X6874865Y-3576777D01*
X6826453Y-3603396D01*
X6824929Y-3604056D01*
X6797954Y-3619093D01*
X6769658Y-3635552D01*
X6760616Y-3645357D01*
X6754977Y-3656279D01*
X6751218Y-3670503D01*
X6751218Y-3678986D01*
X6754469Y-3690975D01*
X6761734Y-3704996D01*
X6774180Y-3716324D01*
X6786270Y-3722065D01*
X6797598Y-3725418D01*
X6815785Y-3724554D01*
X6825996Y-3721862D01*
X6840524Y-3713683D01*
X6841896Y-3713683D01*
X6850938Y-3707892D01*
X6851650Y-3707892D01*
X6892696Y-3684727D01*
X6893306Y-3684727D01*
X6938772Y-3659022D01*
X6941820Y-3657650D01*
X6953707Y-3650691D01*
X6955485Y-3653383D01*
X6955536Y-3798366D01*
X6961936Y-3813556D01*
X6967169Y-3820312D01*
X6975348Y-3828592D01*
X6980428Y-3831285D01*
X6995566Y-3838397D01*
X7020052Y-3838498D01*
X7030161Y-3834841D01*
X7036409Y-3831793D01*
X7043420Y-3827221D01*
X7051700Y-3819347D01*
X7057339Y-3810152D01*
X7062165Y-3797147D01*
X7062266Y-3653383D01*
X7063790Y-3651097D01*
X7085075Y-3662832D01*
X7094270Y-3667556D01*
X7097471Y-3670249D01*
X7098995Y-3670249D01*
X7135926Y-3691280D01*
X7144054Y-3695547D01*
X7162647Y-3705961D01*
X7164882Y-3705961D01*
X7164882Y-3707637D01*
X7168438Y-3708806D01*
X7171486Y-3710686D01*
X7191756Y-3721862D01*
X7200950Y-3724452D01*
X7217613Y-3725418D01*
X7230922Y-3722268D01*
X7238593Y-3718966D01*
X7247737Y-3712921D01*
X7256983Y-3703523D01*
X7263231Y-3690975D01*
X7266940Y-3674110D01*
X7263333Y-3657701D01*
X7260437Y-3652418D01*
X7260437Y-3651046D01*
X7254443Y-3642614D01*
X7243267Y-3631946D01*
X7235799Y-3628542D01*
X7207453Y-3612337D01*
X7206640Y-3612337D01*
X7197902Y-3606800D01*
X7186726Y-3601059D01*
X7163866Y-3588207D01*
X7158278Y-3585260D01*
X7119823Y-3563620D01*
X7115556Y-3561689D01*
X7096302Y-3550513D01*
X7064756Y-3532987D01*
X7062216Y-3529990D01*
X7062266Y-3280918D01*
X7064044Y-3278276D01*
X7091730Y-3293008D01*
X7112000Y-3304133D01*
X7127798Y-3313277D01*
X7130846Y-3314598D01*
X7150811Y-3325774D01*
X7151674Y-3325774D01*
X7177582Y-3340252D01*
X7180630Y-3342233D01*
X7183678Y-3343452D01*
X7210399Y-3358591D01*
X7211517Y-3358591D01*
X7240219Y-3374999D01*
X7241031Y-3374999D01*
X7287971Y-3401060D01*
X7289393Y-3401060D01*
X7294930Y-3405378D01*
X7296810Y-3609949D01*
X7300671Y-3619601D01*
X7305344Y-3628136D01*
X7315758Y-3638550D01*
X7324547Y-3644188D01*
X7325664Y-3644188D01*
X7332065Y-3646982D01*
X7343140Y-3649979D01*
X7355433Y-3649979D01*
X7369657Y-3646424D01*
X7378852Y-3642004D01*
X7387945Y-3635044D01*
X7393076Y-3629456D01*
X7400493Y-3616909D01*
X7404049Y-3602736D01*
X7402982Y-3466642D01*
X7404862Y-3465525D01*
X7411364Y-3468065D01*
X7419797Y-3473399D01*
X7421016Y-3473399D01*
X7456728Y-3493668D01*
X7457592Y-3493668D01*
X7507884Y-3521557D01*
X7512151Y-3523437D01*
X7525715Y-3531311D01*
X7527036Y-3531311D01*
X7530287Y-3533952D01*
X7542479Y-3537864D01*
X7553858Y-3540251D01*
X7560767Y-3539286D01*
X7572857Y-3536950D01*
X7585557Y-3531057D01*
X7596581Y-3521710D01*
X7602981Y-3512261D01*
X7608265Y-3499967D01*
X7608519Y-3477768D01*
X7605725Y-3471011D01*
X7599527Y-3458464D01*
X7587183Y-3446881D01*
X7563815Y-3433927D01*
X7560767Y-3432556D01*
X7533335Y-3417214D01*
X7523124Y-3411931D01*
X7509408Y-3403955D01*
X7508392Y-3403955D01*
X7482789Y-3389477D01*
X7482027Y-3389477D01*
X7466228Y-3380790D01*
X7463180Y-3378860D01*
X7458608Y-3376980D01*
X7458659Y-3375507D01*
X7460132Y-3373475D01*
X7494270Y-3354730D01*
X7495184Y-3354730D01*
X7507884Y-3347364D01*
X7519060Y-3341522D01*
X7574991Y-3311398D01*
X7585913Y-3305048D01*
X7596022Y-3295497D01*
X7601356Y-3287674D01*
X7604099Y-3280918D01*
X7607147Y-3268370D01*
X7606080Y-3253638D01*
X7601610Y-3241344D01*
X7596581Y-3233623D01*
X7588199Y-3225292D01*
X7579055Y-3219196D01*
X7571943Y-3216554D01*
X7557719Y-3212947D01*
X7549591Y-3212896D01*
X7535367Y-3215995D01*
X7526172Y-3220313D01*
X7511948Y-3227679D01*
X7504836Y-3231896D01*
X7484516Y-3242360D01*
X7476439Y-3247644D01*
X7474966Y-3247644D01*
X7456322Y-3258261D01*
X7455408Y-3258261D01*
X7438237Y-3267913D01*
X7436967Y-3267913D01*
X7423962Y-3275685D01*
X7419492Y-3277565D01*
X7400950Y-3288182D01*
X7399731Y-3288182D01*
X7380884Y-3298647D01*
X7350353Y-3315157D01*
X7346289Y-3315157D01*
X7329424Y-3305556D01*
X7328509Y-3305556D01*
X7300569Y-3289706D01*
X7293457Y-3286201D01*
X7283805Y-3280613D01*
X7231481Y-3252114D01*
X7215174Y-3242818D01*
X7212126Y-3241446D01*
X7192162Y-3230270D01*
X7191349Y-3230270D01*
X7178446Y-3222752D01*
X7165390Y-3216046D01*
X7149490Y-3207105D01*
X7148271Y-3207105D01*
X7145070Y-3204464D01*
X7119213Y-3190494D01*
X7117232Y-3188258D01*
X7142022Y-3174796D01*
X7142683Y-3173323D01*
X7144664Y-3173323D01*
X7165390Y-3161842D01*
X7168438Y-3160420D01*
X7188758Y-3149193D01*
X7191806Y-3147263D01*
X7194854Y-3145942D01*
X7207046Y-3138932D01*
X7252817Y-3114192D01*
X7269073Y-3104896D01*
X7280249Y-3099308D01*
X7302601Y-3086506D01*
X7305649Y-3085185D01*
X7313777Y-3080258D01*
X7347305Y-3062376D01*
X7350353Y-3062478D01*
X7358481Y-3067151D01*
X7364577Y-3070047D01*
X7376820Y-3076549D01*
X7394194Y-3086354D01*
X7403236Y-3090976D01*
X7437780Y-3109772D01*
X7443876Y-3113481D01*
X7448143Y-3115310D01*
X7461707Y-3123184D01*
X7462621Y-3123184D01*
X7479842Y-3132836D01*
X7481163Y-3132836D01*
X7486548Y-3136442D01*
X7528204Y-3158439D01*
X7533335Y-3160725D01*
X7541310Y-3163722D01*
X7564831Y-3163722D01*
X7576007Y-3159658D01*
X7586370Y-3154070D01*
X7593330Y-3147771D01*
X7598714Y-3141014D01*
X7604810Y-3129381D01*
X7607350Y-3113532D01*
X7604861Y-3098139D01*
X7601915Y-3092754D01*
X7601915Y-3090773D01*
X7594752Y-3080258D01*
X7586167Y-3072841D01*
X7579055Y-3068472D01*
X7564831Y-3061106D01*
X7557719Y-3056890D01*
X7497724Y-3024733D01*
X7494676Y-3022803D01*
X7490409Y-3021076D01*
X7476845Y-3013151D01*
X7475931Y-3013151D01*
X7458506Y-3003397D01*
X7459268Y-3001213D01*
X7471308Y-2993999D01*
X7488580Y-2984957D01*
X7505446Y-2975559D01*
X7506157Y-2975559D01*
X7536383Y-2958541D01*
X7539431Y-2957169D01*
X7563053Y-2943707D01*
X7564069Y-2943707D01*
X7582103Y-2933547D01*
X7591450Y-2927400D01*
X7601407Y-2916224D01*
X7604759Y-2909468D01*
X7608417Y-2899816D01*
X7608316Y-2878429D01*
X7604506Y-2868930D01*
X7599883Y-2860598D01*
X7593279Y-2852826D01*
X7581646Y-2844495D01*
X7566863Y-2839059D01*
X7544511Y-2839008D01*
X7532319Y-2842869D01*
X7506868Y-2856941D01*
X7503820Y-2858820D01*
X7500772Y-2860090D01*
X7487767Y-2867660D01*
X7483500Y-2869488D01*
X7433716Y-2897022D01*
X7430668Y-2898394D01*
X7424572Y-2902204D01*
X7420508Y-2904032D01*
X7405268Y-2912618D01*
X7402830Y-2910738D01*
X7404049Y-2774086D01*
X7400594Y-2761843D01*
X7394194Y-2749296D01*
X7380884Y-2736646D01*
X7365593Y-2729738D01*
X7348626Y-2727604D01*
X7334300Y-2729687D01*
X7325918Y-2733090D01*
X7314793Y-2739898D01*
X7306462Y-2748432D01*
X7300620Y-2757932D01*
X7296759Y-2767634D01*
X7294930Y-2965399D01*
X7293457Y-2973882D01*
X7264349Y-2990037D01*
X7263587Y-2990037D01*
X7240016Y-3003499D01*
X7238949Y-3003499D01*
X7211517Y-3018942D01*
X7210298Y-3018942D01*
X7203643Y-3023768D01*
X7202220Y-3023768D01*
X7187742Y-3032048D01*
X7182662Y-3034436D01*
X7158990Y-3047898D01*
X7156754Y-3047898D01*
X7156754Y-3049727D01*
X7152640Y-3050946D01*
X7127290Y-3065272D01*
X7126478Y-3065272D01*
X7100722Y-3079750D01*
X7099604Y-3079750D01*
X7090613Y-3085541D01*
X7089698Y-3085541D01*
X7076948Y-3092856D01*
X7063435Y-3099866D01*
X7062216Y-3096971D01*
X7062216Y-2848305D01*
X7066788Y-2843530D01*
X7104430Y-2822498D01*
X7107478Y-2821127D01*
X7113574Y-2817418D01*
X7194448Y-2772410D01*
X7199934Y-2769717D01*
X7202627Y-2767126D01*
X7204506Y-2767126D01*
X7221270Y-2757576D01*
X7234529Y-2750312D01*
X7240778Y-2747213D01*
X7244537Y-2744470D01*
X7256881Y-2732582D01*
X7260285Y-2726131D01*
X7263333Y-2719374D01*
X7266533Y-2707132D01*
X7266533Y-2700680D01*
X7262672Y-2685592D01*
X7259269Y-2678836D01*
X7256830Y-2674823D01*
X7250938Y-2667762D01*
X7239406Y-2659176D01*
X7228382Y-2654554D01*
X7212787Y-2652166D01*
X7197902Y-2654198D01*
X7189520Y-2657043D01*
X7179005Y-2662936D01*
X7178344Y-2662936D01*
X7138974Y-2685338D01*
X7129830Y-2689961D01*
X7092188Y-2711196D01*
X7088682Y-2712364D01*
X7088682Y-2713939D01*
X7084263Y-2715260D01*
X7066127Y-2725572D01*
X7062724Y-2726131D01*
X7061606Y-2578506D01*
X7058558Y-2569362D01*
X7056120Y-2567025D01*
X7056120Y-2564790D01*
X7050024Y-2557272D01*
X7046468Y-2553411D01*
X7037171Y-2546197D01*
X7025131Y-2541168D01*
G37*
G36*
X7974177Y-3455060D02*
G01*
X7973263Y-3455263D01*
X7971129Y-3456482D01*
X7969910Y-3457752D01*
X7965135Y-3469233D01*
X7964830Y-3470401D01*
X7957159Y-3489350D01*
X7957159Y-3489960D01*
X7956803Y-3490214D01*
X7956550Y-3491484D01*
X7953044Y-3499967D01*
X7953044Y-3500374D01*
X7951520Y-3503676D01*
X7951266Y-3504895D01*
X7950962Y-3505250D01*
X7942681Y-3526028D01*
X7942427Y-3527247D01*
X7942072Y-3527602D01*
X7938262Y-3537051D01*
X7938262Y-3537661D01*
X7937906Y-3537915D01*
X7937652Y-3539185D01*
X7934147Y-3547668D01*
X7934147Y-3548075D01*
X7932623Y-3551377D01*
X7932369Y-3552444D01*
X7931658Y-3553815D01*
X7924596Y-3554526D01*
X7886395Y-3557015D01*
X7883245Y-3557422D01*
X7834223Y-3560622D01*
X7829397Y-3561232D01*
X7827365Y-3562350D01*
X7826146Y-3563620D01*
X7825079Y-3565855D01*
X7825079Y-3568446D01*
X7825740Y-3570427D01*
X7826044Y-3570427D01*
X7826095Y-3570935D01*
X7828330Y-3573068D01*
X7856880Y-3597351D01*
X7857185Y-3597351D01*
X7904581Y-3637584D01*
X7904632Y-3639210D01*
X7904225Y-3639616D01*
X7902143Y-3648760D01*
X7901889Y-3649167D01*
X7901635Y-3651148D01*
X7901279Y-3651758D01*
X7899857Y-3657955D01*
X7899501Y-3658666D01*
X7899247Y-3660546D01*
X7898942Y-3660952D01*
X7891018Y-3693668D01*
X7890611Y-3694480D01*
X7886395Y-3711956D01*
X7884515Y-3718966D01*
X7884515Y-3720033D01*
X7884159Y-3720439D01*
X7879943Y-3737356D01*
X7879943Y-3740048D01*
X7881061Y-3742334D01*
X7882178Y-3743655D01*
X7883906Y-3744671D01*
X7884718Y-3744671D01*
X7884922Y-3745077D01*
X7887462Y-3745077D01*
X7887716Y-3744671D01*
X7888528Y-3744671D01*
X7896656Y-3739642D01*
X7896758Y-3739286D01*
X7897317Y-3739286D01*
X7901431Y-3736492D01*
X7901482Y-3736289D01*
X7901838Y-3736289D01*
X7942732Y-3710178D01*
X7943342Y-3709974D01*
X7947558Y-3706977D01*
X7948066Y-3706977D01*
X7952130Y-3704285D01*
X7952282Y-3703980D01*
X7952790Y-3703980D01*
X7968081Y-3694125D01*
X7968234Y-3693769D01*
X7968742Y-3693769D01*
X7972806Y-3691128D01*
X7972958Y-3690772D01*
X7973771Y-3690569D01*
X7974888Y-3689807D01*
X7975396Y-3689807D01*
X7990331Y-3699256D01*
X7990840Y-3699764D01*
X7991398Y-3699764D01*
X7991500Y-3700119D01*
X8020964Y-3718915D01*
X8021523Y-3718915D01*
X8021624Y-3719220D01*
X8022894Y-3720134D01*
X8023301Y-3720134D01*
X8023402Y-3720439D01*
X8026552Y-3722370D01*
X8027466Y-3723132D01*
X8028025Y-3723132D01*
X8028127Y-3723436D01*
X8032242Y-3726129D01*
X8032750Y-3726129D01*
X8032851Y-3726434D01*
X8061248Y-3744417D01*
X8063433Y-3745077D01*
X8065211Y-3744874D01*
X8067497Y-3743909D01*
X8068868Y-3742588D01*
X8070189Y-3739692D01*
X8069986Y-3737203D01*
X8062112Y-3705656D01*
X8058302Y-3689502D01*
X8057997Y-3689096D01*
X8057743Y-3687318D01*
X8057489Y-3686911D01*
X8045500Y-3637737D01*
X8123580Y-3571544D01*
X8125104Y-3568344D01*
X8125104Y-3566312D01*
X8124494Y-3564636D01*
X8123580Y-3563162D01*
X8122208Y-3561943D01*
X8120837Y-3561181D01*
X8076641Y-3558082D01*
X8073237Y-3557676D01*
X8066735Y-3557473D01*
X8018576Y-3554018D01*
X8017256Y-3551174D01*
X8017002Y-3549853D01*
X8016595Y-3549650D01*
X8016595Y-3549040D01*
X7997901Y-3502050D01*
X7997698Y-3501948D01*
X7997698Y-3501339D01*
X7994192Y-3492754D01*
X7994192Y-3492347D01*
X7982966Y-3464458D01*
X7982966Y-3464001D01*
X7980375Y-3457803D01*
X7978648Y-3456076D01*
X7976971Y-3455212D01*
G37*
G36*
X6492494Y-3860139D02*
G01*
X6491122Y-3860190D01*
X6488277Y-3861409D01*
X6485686Y-3863543D01*
X6483553Y-3866794D01*
X6481876Y-3870756D01*
X6456883Y-3946804D01*
X6449822Y-3965092D01*
X6442202Y-3982059D01*
X6435140Y-3995724D01*
X6432042Y-4001312D01*
X6426098Y-4011066D01*
X6420459Y-4019600D01*
X6415532Y-4026458D01*
X6405575Y-4038904D01*
X6400292Y-4044746D01*
X6390386Y-4054652D01*
X6347815Y-4093311D01*
X6345072Y-4097883D01*
X6343954Y-4100626D01*
X6342735Y-4106367D01*
X6342640Y-4110380D01*
X6380378Y-4110380D01*
X6380530Y-4109720D01*
X6405270Y-4087063D01*
X6410756Y-4081576D01*
X6419088Y-4072534D01*
X6425539Y-4064711D01*
X6433870Y-4053738D01*
X6441998Y-4041800D01*
X6449923Y-4028694D01*
X6456680Y-4016298D01*
X6462674Y-4004259D01*
X6469989Y-3987596D01*
X6477660Y-3967683D01*
X6492443Y-3923080D01*
X6492849Y-3923334D01*
X6504178Y-3957878D01*
X6508445Y-3970223D01*
X6516776Y-3991508D01*
X6524396Y-4008170D01*
X6528663Y-4016654D01*
X6535216Y-4028694D01*
X6543192Y-4041800D01*
X6549288Y-4050893D01*
X6555689Y-4059631D01*
X6561937Y-4067556D01*
X6571996Y-4079087D01*
X6579412Y-4086555D01*
X6604762Y-4109872D01*
X6604762Y-4110380D01*
X6578853Y-4134307D01*
X6574231Y-4138929D01*
X6568643Y-4144975D01*
X6560108Y-4154932D01*
X6553758Y-4163110D01*
X6545529Y-4174896D01*
X6538264Y-4186682D01*
X6531609Y-4198162D01*
X6524345Y-4212234D01*
X6518909Y-4223969D01*
X6515150Y-4232706D01*
X6508292Y-4250486D01*
X6492748Y-4297172D01*
X6492341Y-4296968D01*
X6479032Y-4256532D01*
X6475323Y-4246067D01*
X6466230Y-4223867D01*
X6458610Y-4207865D01*
X6454292Y-4199585D01*
X6448450Y-4189171D01*
X6437884Y-4172254D01*
X6428790Y-4159707D01*
X6421983Y-4151223D01*
X6417360Y-4145838D01*
X6411874Y-4139895D01*
X6399885Y-4128160D01*
X6380378Y-4110380D01*
X6342640Y-4110380D01*
X6342583Y-4111955D01*
X6343396Y-4117289D01*
X6344666Y-4121708D01*
X6347612Y-4126687D01*
X6393332Y-4168495D01*
X6400241Y-4175455D01*
X6405575Y-4181398D01*
X6415735Y-4194149D01*
X6423964Y-4205935D01*
X6430010Y-4215485D01*
X6438595Y-4231081D01*
X6443319Y-4240682D01*
X6448755Y-4252671D01*
X6455054Y-4268571D01*
X6458458Y-4278071D01*
X6482588Y-4351477D01*
X6484620Y-4355287D01*
X6486804Y-4357776D01*
X6489344Y-4359452D01*
X6491427Y-4360164D01*
X6493764Y-4360164D01*
X6495796Y-4359452D01*
X6497980Y-4358030D01*
X6499504Y-4356608D01*
X6501739Y-4353306D01*
X6503517Y-4348886D01*
X6528562Y-4272838D01*
X6532067Y-4263390D01*
X6539331Y-4246016D01*
X6547561Y-4229049D01*
X6552387Y-4220311D01*
X6561277Y-4205833D01*
X6566662Y-4197959D01*
X6572097Y-4190695D01*
X6579616Y-4181398D01*
X6588252Y-4172051D01*
X6595465Y-4165041D01*
X6636766Y-4127398D01*
X6638798Y-4124858D01*
X6640931Y-4120235D01*
X6641744Y-4117340D01*
X6642557Y-4112056D01*
X6642557Y-4107942D01*
X6641795Y-4102963D01*
X6640525Y-4098544D01*
X6637578Y-4093616D01*
X6593027Y-4052925D01*
X6588404Y-4048404D01*
X6577990Y-4036923D01*
X6569709Y-4026458D01*
X6561023Y-4014063D01*
X6555638Y-4005376D01*
X6550101Y-3995877D01*
X6544259Y-3984650D01*
X6535674Y-3965905D01*
X6529933Y-3951173D01*
X6521246Y-3925570D01*
X6502501Y-3868470D01*
X6499555Y-3863543D01*
X6496862Y-3861409D01*
X6493916Y-3860139D01*
G37*
G36*
X7769809Y-2276094D02*
G01*
X7768386Y-2276703D01*
X7767066Y-2277821D01*
X7765999Y-2279396D01*
X7753400Y-2317394D01*
X7749946Y-2326589D01*
X7746390Y-2334818D01*
X7742580Y-2342438D01*
X7738770Y-2349093D01*
X7734452Y-2355850D01*
X7730388Y-2361336D01*
X7724394Y-2368397D01*
X7719415Y-2373325D01*
X7698181Y-2392680D01*
X7696758Y-2394966D01*
X7696200Y-2396337D01*
X7695641Y-2399233D01*
X7695567Y-2401214D01*
X7714437Y-2401214D01*
X7714488Y-2400858D01*
X7724292Y-2391968D01*
X7729626Y-2386787D01*
X7737602Y-2377694D01*
X7743799Y-2369058D01*
X7749235Y-2360371D01*
X7755585Y-2348128D01*
X7760817Y-2335885D01*
X7765643Y-2322220D01*
X7770469Y-2307539D01*
X7770672Y-2307691D01*
X7779105Y-2332888D01*
X7782610Y-2341778D01*
X7787487Y-2352192D01*
X7793837Y-2363622D01*
X7797393Y-2369210D01*
X7803184Y-2377236D01*
X7810246Y-2385568D01*
X7815021Y-2390343D01*
X7826654Y-2400960D01*
X7826654Y-2401214D01*
X7814919Y-2411933D01*
X7808569Y-2418486D01*
X7804302Y-2423464D01*
X7798663Y-2431034D01*
X7795666Y-2435606D01*
X7788960Y-2447086D01*
X7784388Y-2456434D01*
X7779359Y-2468575D01*
X7770622Y-2494635D01*
X7770418Y-2494483D01*
X7761884Y-2469032D01*
X7756398Y-2455824D01*
X7750251Y-2443581D01*
X7744917Y-2434894D01*
X7739938Y-2427579D01*
X7734096Y-2420213D01*
X7728610Y-2414320D01*
X7714437Y-2401214D01*
X7695567Y-2401214D01*
X7695742Y-2403348D01*
X7696606Y-2406904D01*
X7698028Y-2409342D01*
X7712151Y-2422194D01*
X7723022Y-2432405D01*
X7729474Y-2439670D01*
X7734553Y-2446477D01*
X7739278Y-2453741D01*
X7745272Y-2464968D01*
X7748473Y-2471978D01*
X7751368Y-2479192D01*
X7765542Y-2521762D01*
X7766558Y-2523642D01*
X7768336Y-2525420D01*
X7769453Y-2525928D01*
X7771130Y-2526080D01*
X7773212Y-2525064D01*
X7774025Y-2524302D01*
X7775143Y-2522677D01*
X7787182Y-2486304D01*
X7791246Y-2475280D01*
X7795717Y-2465120D01*
X7799222Y-2458364D01*
X7804912Y-2448915D01*
X7810296Y-2441397D01*
X7816138Y-2434386D01*
X7823555Y-2427122D01*
X7842656Y-2409698D01*
X7843621Y-2408428D01*
X7844688Y-2406142D01*
X7845399Y-2402941D01*
X7845501Y-2399995D01*
X7845145Y-2397506D01*
X7844485Y-2395270D01*
X7843012Y-2392832D01*
X7821777Y-2373477D01*
X7817205Y-2368905D01*
X7811363Y-2362200D01*
X7805826Y-2354681D01*
X7799324Y-2343962D01*
X7793990Y-2333294D01*
X7790129Y-2324150D01*
X7775498Y-2280259D01*
X7774025Y-2277770D01*
X7772704Y-2276703D01*
X7771180Y-2276094D01*
G37*
G36*
X6754875Y-278434D02*
G01*
X6713067Y-278587D01*
X6698132Y-280212D01*
X6687261Y-281990D01*
X6676186Y-284175D01*
X6673138Y-285343D01*
X6670243Y-285343D01*
X6665264Y-288290D01*
X6657594Y-296113D01*
X6653885Y-302920D01*
X6652463Y-310489D01*
X6653834Y-315569D01*
X6655206Y-317296D01*
X6657340Y-321513D01*
X6663232Y-328828D01*
X6668363Y-332282D01*
X6676948Y-332130D01*
X6691274Y-330301D01*
X6717284Y-329031D01*
X6741718Y-330301D01*
X6756603Y-332028D01*
X6767525Y-333806D01*
X6780377Y-336397D01*
X6797903Y-340766D01*
X6823100Y-349148D01*
X6832295Y-352704D01*
X6842607Y-357124D01*
X6855155Y-362813D01*
X6872376Y-371551D01*
X6883857Y-378053D01*
X6885584Y-378815D01*
X6911289Y-394462D01*
X6918604Y-399389D01*
X6919010Y-399389D01*
X6940042Y-413816D01*
X6961022Y-429006D01*
X7021830Y-474675D01*
X7023709Y-476351D01*
X7062368Y-504951D01*
X7094220Y-526999D01*
X7095947Y-527761D01*
X7104532Y-533501D01*
X7128052Y-547725D01*
X7134910Y-551535D01*
X7157821Y-563372D01*
X7174738Y-570941D01*
X7187641Y-576275D01*
X7188758Y-576935D01*
X7192213Y-577799D01*
X7206792Y-583184D01*
X7205573Y-585571D01*
X7201408Y-589483D01*
X7192670Y-596239D01*
X7184796Y-600862D01*
X7177531Y-604418D01*
X7163003Y-609244D01*
X7153249Y-611936D01*
X7142683Y-615289D01*
X7141413Y-615289D01*
X7130338Y-620623D01*
X7125716Y-624128D01*
X7120788Y-629412D01*
X7116775Y-637743D01*
X7115606Y-644956D01*
X7116267Y-649833D01*
X7118299Y-653592D01*
X7122668Y-660196D01*
X7129221Y-666292D01*
X7137755Y-672084D01*
X7159752Y-682701D01*
X7160971Y-682701D01*
X7179056Y-691235D01*
X7187946Y-694791D01*
X7190181Y-694791D01*
X7194499Y-696366D01*
X7205421Y-698500D01*
X7232345Y-698500D01*
X7251852Y-694690D01*
X7266431Y-690473D01*
X7278776Y-686308D01*
X7296556Y-678789D01*
X7314336Y-670306D01*
X7319619Y-667156D01*
X7325614Y-667156D01*
X7329220Y-669137D01*
X7332929Y-672541D01*
X7332929Y-691591D01*
X7334656Y-706577D01*
X7335977Y-713486D01*
X7336790Y-719277D01*
X7339888Y-731926D01*
X7343241Y-743458D01*
X7347153Y-755548D01*
X7356906Y-779170D01*
X7366304Y-799287D01*
X7390688Y-848258D01*
X7396429Y-860348D01*
X7404252Y-878484D01*
X7412024Y-898093D01*
X7412024Y-899769D01*
X7413599Y-903528D01*
X7418831Y-923137D01*
X7422388Y-942136D01*
X7423403Y-955040D01*
X7421880Y-972616D01*
X7420559Y-978966D01*
X7417053Y-992225D01*
X7403541Y-1033119D01*
X7399832Y-1049070D01*
X7399731Y-1063802D01*
X7406843Y-1074064D01*
X7409637Y-1079754D01*
X7413650Y-1093012D01*
X7415428Y-1102207D01*
X7417308Y-1113739D01*
X7419187Y-1117752D01*
X7422591Y-1122934D01*
X7430211Y-1132128D01*
X7443266Y-1145032D01*
X7451140Y-1151483D01*
X7459522Y-1157122D01*
X7463332Y-1159205D01*
X7473645Y-1162812D01*
X7480553Y-1164590D01*
X7489139Y-1166418D01*
X7501737Y-1168400D01*
X7553350Y-1168400D01*
X7566507Y-1166418D01*
X7575092Y-1164590D01*
X7582001Y-1162812D01*
X7587742Y-1161084D01*
X7593431Y-1158798D01*
X7604963Y-1151077D01*
X7615783Y-1141933D01*
X7626959Y-1130604D01*
X7635595Y-1119276D01*
X7638643Y-1113231D01*
X7639456Y-1105103D01*
X7642606Y-1090117D01*
X7644333Y-1084376D01*
X7646060Y-1079754D01*
X7648244Y-1075131D01*
X7649616Y-1072845D01*
X7652613Y-1068832D01*
X7656220Y-1062380D01*
X7656220Y-1052677D01*
X7654391Y-1042873D01*
X7652715Y-1035964D01*
X7649311Y-1024483D01*
X7638999Y-993394D01*
X7635697Y-981862D01*
X7633868Y-973226D01*
X7632141Y-960932D01*
X7632141Y-950417D01*
X7633868Y-938072D01*
X7635646Y-928319D01*
X7637373Y-920242D01*
X7642606Y-901801D01*
X7644180Y-898042D01*
X7644180Y-896366D01*
X7655204Y-868984D01*
X7661503Y-855167D01*
X7689596Y-798423D01*
X7697368Y-782015D01*
X7706817Y-759561D01*
X7710728Y-748639D01*
X7711643Y-745032D01*
X7712557Y-743559D01*
X7713472Y-739394D01*
X7715808Y-731367D01*
X7717993Y-722122D01*
X7721092Y-705459D01*
X7722209Y-694486D01*
X7722971Y-671677D01*
X7725867Y-669442D01*
X7730185Y-667156D01*
X7736027Y-667156D01*
X7741361Y-670306D01*
X7758531Y-678535D01*
X7767675Y-682599D01*
X7779715Y-687324D01*
X7791754Y-691286D01*
X7803794Y-694740D01*
X7823301Y-698500D01*
X7850784Y-698398D01*
X7867446Y-694639D01*
X7876590Y-691184D01*
X7887462Y-686003D01*
X7906359Y-677773D01*
X7918145Y-671779D01*
X7925155Y-667105D01*
X7931912Y-661212D01*
X7936585Y-654964D01*
X7939938Y-648208D01*
X7939938Y-642112D01*
X7937753Y-635203D01*
X7935722Y-631139D01*
X7931810Y-625652D01*
X7925308Y-620674D01*
X7915554Y-615950D01*
X7902956Y-611987D01*
X7895488Y-610057D01*
X7884058Y-606552D01*
X7880299Y-604926D01*
X7879130Y-604926D01*
X7871459Y-601268D01*
X7863738Y-596290D01*
X7863078Y-596290D01*
X7854137Y-589483D01*
X7848752Y-584098D01*
X7849108Y-582930D01*
X7853680Y-581253D01*
X7857134Y-580288D01*
X7874000Y-573887D01*
X7887462Y-568147D01*
X7896656Y-563981D01*
X7915554Y-554431D01*
X7919567Y-552043D01*
X7925308Y-549046D01*
X7934706Y-543610D01*
X7950555Y-533958D01*
X7982762Y-512419D01*
X8002117Y-498449D01*
X8021218Y-484327D01*
X8030108Y-477418D01*
X8032648Y-475691D01*
X8098993Y-425754D01*
X8116468Y-413156D01*
X8138515Y-398221D01*
X8140192Y-397408D01*
X8147710Y-392277D01*
X8170062Y-378866D01*
X8183270Y-371551D01*
X8200491Y-362813D01*
X8218779Y-354533D01*
X8232546Y-349148D01*
X8252866Y-342239D01*
X8265515Y-338785D01*
X8278977Y-335534D01*
X8299043Y-332028D01*
X8313928Y-330301D01*
X8338312Y-329031D01*
X8364931Y-330301D01*
X8378596Y-332130D01*
X8387283Y-332232D01*
X8392464Y-328625D01*
X8394852Y-325932D01*
X8398814Y-320192D01*
X8402472Y-314096D01*
X8402472Y-305562D01*
X8398814Y-297484D01*
X8393176Y-290830D01*
X8386724Y-286054D01*
X8372398Y-282803D01*
X8356904Y-280162D01*
X8340293Y-278434D01*
X8301329Y-278434D01*
X8282381Y-280212D01*
X8268665Y-281940D01*
X8247430Y-285445D01*
X8227364Y-289661D01*
X8215325Y-292404D01*
X8191296Y-299161D01*
X8174075Y-304850D01*
X8163204Y-308762D01*
X8144408Y-316433D01*
X8143392Y-316433D01*
X8124494Y-325069D01*
X8123936Y-325069D01*
X8111591Y-330962D01*
X8087512Y-342950D01*
X8061147Y-357124D01*
X8046821Y-365455D01*
X8043367Y-367131D01*
X8039963Y-369417D01*
X8038236Y-370179D01*
X7979765Y-405688D01*
X7977479Y-406857D01*
X7937347Y-431596D01*
X7935620Y-432409D01*
X7931607Y-435203D01*
X7929321Y-436270D01*
X7922463Y-440639D01*
X7920736Y-441401D01*
X7917281Y-443687D01*
X7915605Y-444500D01*
X7899501Y-454101D01*
X7897825Y-454863D01*
X7893812Y-457352D01*
X7884617Y-462330D01*
X7881162Y-464413D01*
X7865109Y-473049D01*
X7856778Y-477113D01*
X7855813Y-477113D01*
X7849108Y-480161D01*
X7845653Y-481025D01*
X7837627Y-483920D01*
X7817561Y-489102D01*
X7808366Y-490880D01*
X7797495Y-492658D01*
X7782610Y-494588D01*
X7743647Y-494588D01*
X7733030Y-492658D01*
X7729524Y-492658D01*
X7713827Y-489153D01*
X7700619Y-485241D01*
X7691374Y-481838D01*
X7689189Y-480618D01*
X7681163Y-477062D01*
X7679436Y-475945D01*
X7676896Y-474878D01*
X7672527Y-472084D01*
X7666837Y-468934D01*
X7658811Y-466750D01*
X7645603Y-466750D01*
X7638745Y-468426D01*
X7634478Y-468477D01*
X7633817Y-467410D01*
X7630109Y-465480D01*
X7624419Y-463296D01*
X7614412Y-463296D01*
X7608468Y-465632D01*
X7605471Y-467766D01*
X7599730Y-470052D01*
X7593431Y-471576D01*
X7584287Y-471576D01*
X7571943Y-469239D01*
X7560767Y-466851D01*
X7552181Y-465277D01*
X7540701Y-465277D01*
X7534960Y-466851D01*
X7528052Y-469696D01*
X7521803Y-467258D01*
X7516063Y-465582D01*
X7506157Y-464870D01*
X7491120Y-467614D01*
X7479385Y-470154D01*
X7471359Y-471525D01*
X7462774Y-471627D01*
X7455865Y-470052D01*
X7450226Y-467766D01*
X7446162Y-465226D01*
X7441234Y-463296D01*
X7431227Y-463296D01*
X7425486Y-465480D01*
X7421829Y-467410D01*
X7421118Y-468477D01*
X7416901Y-468426D01*
X7410043Y-466750D01*
X7396835Y-466750D01*
X7388809Y-468884D01*
X7377379Y-475386D01*
X7375652Y-476554D01*
X7364272Y-481838D01*
X7355027Y-485241D01*
X7342378Y-489051D01*
X7326122Y-492658D01*
X7322616Y-492658D01*
X7311999Y-494588D01*
X7273036Y-494588D01*
X7258151Y-492658D01*
X7247229Y-490880D01*
X7238085Y-489051D01*
X7233005Y-487476D01*
X7230567Y-487476D01*
X7209688Y-481126D01*
X7203135Y-478688D01*
X7200087Y-477113D01*
X7198715Y-477113D01*
X7187082Y-471271D01*
X7172706Y-463397D01*
X7153859Y-452678D01*
X7136079Y-442264D01*
X7131456Y-439318D01*
X7127443Y-437083D01*
X7122871Y-434136D01*
X7121144Y-433324D01*
X7117689Y-431038D01*
X7115403Y-429869D01*
X7112000Y-427583D01*
X7110272Y-426770D01*
X7081012Y-408584D01*
X7078725Y-407416D01*
X7075322Y-405130D01*
X7072985Y-403961D01*
X7038340Y-382625D01*
X7020255Y-371957D01*
X7018528Y-371144D01*
X7015124Y-368909D01*
X7007098Y-364490D01*
X7004202Y-362610D01*
X6971538Y-344728D01*
X6946341Y-332079D01*
X6927697Y-323342D01*
X6913676Y-317144D01*
X6892188Y-308610D01*
X6872986Y-302056D01*
X6855459Y-296621D01*
X6838594Y-292150D01*
X6825386Y-288899D01*
X6798462Y-283667D01*
X6779564Y-281025D01*
G37*
D10*
X5422900Y-727455D02*
G01*
X5422900Y-279400D01*
X5314950Y-154686D01*
X2588259Y-157479D01*
X5505704Y-1222502D02*
G01*
X5554218Y-1173987D01*
X5549900Y-990600D01*
X5588000Y-990600D01*
X5588000Y-737362D01*
X5482843Y-737362D01*
X5362905Y-787400D02*
G01*
X5308600Y-787400D01*
X5308600Y-1168400D01*
X5365597Y-1222425D01*
X5505602Y-1295400D02*
G01*
X5505602Y-1222425D01*
X5537200Y-1583588D02*
G01*
X5505602Y-1551990D01*
X5505602Y-1295400D01*
X5537200Y-1651863D02*
G01*
X5537200Y-1583588D01*
X5368670Y-2149957D02*
G01*
X5365597Y-2146884D01*
X5365597Y-1295400D01*
X5368670Y-3187700D02*
G01*
X5368670Y-2149957D01*
X5368676Y-2149957D01*
X5365597Y-1295400D02*
G01*
X5365597Y-1222425D01*
X5537200Y-1870814D02*
G01*
X5578729Y-1912343D01*
X5578729Y-3187700D01*
X5537200Y-1802536D02*
G01*
X5537200Y-1870811D01*
D11*
X2589199Y-156997D02*
G01*
X2589199Y-169697D01*
X2589199Y-236702D01*
X2572689Y-253212D01*
X522706Y-253212D01*
X4782693Y-493191D02*
G01*
X2732709Y-493191D01*
X2716199Y-509701D01*
X2716199Y-550697D01*
X522706Y-313207D02*
G01*
X2592704Y-313207D01*
X2652699Y-253212D01*
X4782693Y-253212D01*
X522706Y-433196D02*
G01*
X2632709Y-433196D01*
X2692704Y-373202D01*
X4782693Y-373202D01*
X522706Y-373202D02*
G01*
X2612694Y-373202D01*
X2672689Y-313207D01*
X4782693Y-313207D01*
X522706Y-493191D02*
G01*
X2652699Y-493191D01*
X2712694Y-433196D01*
X4782693Y-433196D01*
X5052695Y-523214D02*
G01*
X5052695Y-2483205D01*
X4992700Y-523214D02*
G01*
X4992700Y-2483205D01*
X4932705Y-523214D02*
G01*
X4932705Y-2483205D01*
X4872685Y-523214D02*
G01*
X4872685Y-2483205D01*
X4812690Y-523214D02*
G01*
X4812690Y-2483205D01*
X252704Y-523214D02*
G01*
X252704Y-2483205D01*
X312699Y-523214D02*
G01*
X312699Y-2483205D01*
X372694Y-523214D02*
G01*
X372694Y-2483205D01*
X432714Y-523214D02*
G01*
X432714Y-2483205D01*
X492709Y-523214D02*
G01*
X492709Y-2483205D01*
X522706Y-2753207D02*
G01*
X4782693Y-2753207D01*
X522706Y-2693187D02*
G01*
X4782693Y-2693187D01*
X522706Y-2633192D02*
G01*
X4782693Y-2633192D01*
X522706Y-2573197D02*
G01*
X4782693Y-2573197D01*
X522706Y-2513203D02*
G01*
X4782693Y-2513203D01*
D12*
G01*
X2588259Y-157479D03*
D13*
G01*
X5505602Y-1295400D03*
G01*
X5365597Y-1295400D03*
D14*
G01*
X5368670Y-3187700D03*
D15*
G01*
X5578729Y-3187700D03*
D16*
G01*
X5537200Y-1651875D03*
D17*
G01*
X5537200Y-1802536D03*
D18*
G01*
X5422900Y-727405D03*
D19*
G01*
X5482894Y-737412D03*
G01*
X5482894Y-787400D03*
G01*
X5482894Y-837412D03*
D18*
G01*
X5422900Y-847394D03*
D19*
G01*
X5362905Y-837387D03*
G01*
X5362905Y-787400D03*
D11*
G75*
G01*
X4782693Y-2753208D02*
G03*
X5052695Y-2483206I0J270002D01*
G75*
G01*
X4782693Y-2693187D02*
G03*
X4992700Y-2483206I0J210007D01*
G75*
G01*
X4782693Y-2633193D02*
G03*
X4932705Y-2483206I25J149987D01*
G75*
G01*
X4782693Y-2573198D02*
G03*
X4872685Y-2483206I0J89992D01*
G75*
G01*
X4782693Y-2513203D02*
G03*
X4812690Y-2483206I0J29997D01*
G75*
G01*
X522707Y-2753208D02*
G02*
X252705Y-2483206I0J270002D01*
G75*
G01*
X522707Y-2693187D02*
G02*
X312699Y-2483206I0J210007D01*
G75*
G01*
X522707Y-2633193D02*
G02*
X372694Y-2483206I-26J149987D01*
G75*
G01*
X522707Y-2573198D02*
G02*
X432714Y-2483206I0J89992D01*
G75*
G01*
X522707Y-2513203D02*
G02*
X492709Y-2483206I0J29997D01*
G75*
G01*
X522707Y-253213D02*
G03*
X252705Y-523215I0J-270002D01*
G75*
G01*
X522707Y-313207D02*
G03*
X312699Y-523215I0J-210008D01*
G75*
G01*
X522707Y-373202D02*
G03*
X372694Y-523215I-26J-149987D01*
G75*
G01*
X522707Y-433197D02*
G03*
X432714Y-523215I0J-89992D01*
G75*
G01*
X522707Y-493192D02*
G03*
X492709Y-523215I0J-29997D01*
G75*
G01*
X4782693Y-253213D02*
G02*
X5052695Y-523215I0J-270002D01*
G75*
G01*
X4782693Y-313207D02*
G02*
X4992700Y-523215I0J-210008D01*
G75*
G01*
X4782693Y-373202D02*
G02*
X4932705Y-523215I25J-149987D01*
G75*
G01*
X4782693Y-433197D02*
G02*
X4872685Y-523215I0J-89992D01*
G75*
G01*
X4782693Y-493192D02*
G02*
X4812690Y-523215I0J-29997D01*
D20*
G01*
X2716098Y-550903D03*
D21*
G01*
X5362905Y-737412D03*
M02*
